<svg width="20" height="20" viewBox="0 0 20 20" fill="none" xmlns="http://www.w3.org/2000/svg">
<path d="M0 1.43266C0 0.641875 0.662031 0 1.47812 0H18.5219C19.3383 0 20 0.641875 20 1.43266V18.5676C20 19.3586 19.3383 20 18.5219 20H1.47812C0.662109 20 0 19.3587 0 18.5678V1.43242V1.43266Z" fill="#272D37"/>
<path d="M6.07791 16.7371V7.73305H3.0851V16.7371H6.07822H6.07791ZM4.58213 6.50391C5.62557 6.50391 6.27518 5.8125 6.27518 4.94844C6.25564 4.06469 5.62557 3.39258 4.60197 3.39258C3.57768 3.39258 2.90869 4.06469 2.90869 4.94836C2.90869 5.81242 3.55807 6.50383 4.56252 6.50383H4.58189L4.58213 6.50391ZM7.73447 16.7371H10.727V11.7094C10.727 11.4406 10.7466 11.1712 10.8256 10.9792C11.0419 10.4413 11.5343 9.88453 12.3613 9.88453C13.4439 9.88453 13.8773 10.7102 13.8773 11.9207V16.7371H16.8698V11.5745C16.8698 8.80891 15.3935 7.52195 13.4245 7.52195C11.8103 7.52195 11.1013 8.42422 10.7074 9.03875H10.7273V7.73336H7.73463C7.77369 8.57805 7.73439 16.7374 7.73439 16.7374L7.73447 16.7371Z" fill="white"/>
</svg>
