<svg width="48" height="48" viewBox="0 0 48 48" fill="none" xmlns="http://www.w3.org/2000/svg">
<rect width="48" height="48" rx="24" fill="#437EF7"/>
<path fill-rule="evenodd" clip-rule="evenodd" d="M9.3335 24.0007C9.3335 15.9005 15.9 9.33398 24.0002 9.33398C32.1003 9.33398 38.6668 15.9005 38.6668 24.0007C38.6668 32.1008 32.1003 38.6673 24.0002 38.6673C15.9 38.6673 9.3335 32.1008 9.3335 24.0007ZM24.0002 13.334C24.7365 13.334 25.3335 13.9309 25.3335 14.6673V19.8525C25.3335 20.5889 24.7365 21.1858 24.0002 21.1858C23.2638 21.1858 22.6668 20.5889 22.6668 19.8525V14.6673C22.6668 13.9309 23.2638 13.334 24.0002 13.334ZM33.3335 25.334C34.0699 25.334 34.6668 24.737 34.6668 24.0007C34.6668 23.2643 34.0699 22.6673 33.3335 22.6673H28.1483C27.4119 22.6673 26.815 23.2643 26.815 24.0007C26.815 24.737 27.4119 25.334 28.1483 25.334H33.3335ZM24.0002 26.8155C24.7365 26.8155 25.3335 27.4124 25.3335 28.1488V33.334C25.3335 34.0704 24.7365 34.6673 24.0002 34.6673C23.2638 34.6673 22.6668 34.0704 22.6668 33.334V28.1488C22.6668 27.4124 23.2638 26.8155 24.0002 26.8155ZM19.852 25.334C20.5884 25.334 21.1853 24.737 21.1853 24.0007C21.1853 23.2643 20.5884 22.6673 19.852 22.6673H14.6668C13.9304 22.6673 13.3335 23.2643 13.3335 24.0007C13.3335 24.737 13.9304 25.334 14.6668 25.334H19.852Z" fill="white"/>
</svg>
