<svg width="48" height="48" viewBox="0 0 48 48" fill="none" xmlns="http://www.w3.org/2000/svg">
<rect width="48" height="48" rx="24" fill="#437EF7"/>
<path d="M18.2767 16.3906C18.5266 15.8684 18.6665 15.2835 18.6665 14.666C18.6665 12.4569 16.8756 10.666 14.6665 10.666C12.4574 10.666 10.6665 12.4569 10.6665 14.666C10.6665 16.8752 12.4574 18.666 14.6665 18.666C15.284 18.666 15.8689 18.5261 16.3911 18.2762L18.4377 20.3228C17.7397 21.3767 17.3332 22.6406 17.3332 23.9993C17.3332 25.3581 17.7397 26.622 18.4377 27.6759L16.6906 29.423C16.4703 29.3641 16.2387 29.3327 15.9998 29.3327C14.5271 29.3327 13.3332 30.5266 13.3332 31.9993C13.3332 33.4721 14.5271 34.666 15.9998 34.666C17.4726 34.666 18.6665 33.4721 18.6665 31.9993C18.6665 31.7605 18.6351 31.5289 18.5762 31.3086L20.3233 29.5615C21.3772 30.2595 22.6411 30.666 23.9998 30.666C25.3586 30.666 26.6224 30.2595 27.6764 29.5615L29.723 31.6081C29.4731 32.1303 29.3332 32.7152 29.3332 33.3327C29.3332 35.5418 31.124 37.3327 33.3332 37.3327C35.5423 37.3327 37.3332 35.5418 37.3332 33.3327C37.3332 31.1235 35.5423 29.3327 33.3332 29.3327C32.7156 29.3327 32.1308 29.4726 31.6086 29.7225L29.562 27.6759C30.26 26.622 30.6665 25.3581 30.6665 23.9993C30.6665 22.6406 30.26 21.3767 29.562 20.3228L31.3091 18.5757C31.5294 18.6346 31.761 18.666 31.9998 18.666C33.4726 18.666 34.6665 17.4721 34.6665 15.9993C34.6665 14.5266 33.4726 13.3327 31.9998 13.3327C30.5271 13.3327 29.3332 14.5266 29.3332 15.9993C29.3332 16.2382 29.3646 16.4698 29.4235 16.6901L27.6764 18.4372C26.6224 17.7392 25.3586 17.3327 23.9998 17.3327C22.6411 17.3327 21.3772 17.7392 20.3233 18.4372L18.2767 16.3906Z" fill="white"/>
</svg>
