<svg width="83" height="22" viewBox="0 0 83 22" fill="none" xmlns="http://www.w3.org/2000/svg">
<path d="M26.8164 16.6364L27.8401 14.3343C28.9463 15.1336 30.4157 15.5493 31.8687 15.5493C32.9419 15.5493 33.6188 15.1496 33.6188 14.5421C33.6023 12.8475 27.1962 14.1744 27.1466 9.92186C27.1301 7.76359 29.1114 6.10097 31.9182 6.10097C33.5858 6.10097 35.2534 6.50064 36.4422 7.4119L35.4846 9.76198C34.3949 9.0905 33.041 8.61092 31.7531 8.61092C30.8781 8.61092 30.3002 9.01063 30.3002 9.52216C30.3167 11.1848 36.7724 10.2736 36.8384 14.3343C36.8384 16.5405 34.9067 18.0912 32.1329 18.0912C30.1021 18.0912 28.2363 17.6276 26.8164 16.6364Z" fill="white"/>
<path d="M66.0954 13.503C65.5836 14.3663 64.6259 14.9577 63.5198 14.9577C61.8852 14.9577 60.5644 13.6788 60.5644 12.0961C60.5644 10.5134 61.8852 9.23441 63.5198 9.23441C64.6259 9.23441 65.5836 9.82594 66.0954 10.6893L68.9188 9.17044C67.8621 7.34795 65.8312 6.10097 63.5198 6.10097C60.102 6.10097 57.3282 8.78678 57.3282 12.0961C57.3282 15.4054 60.102 18.0912 63.5198 18.0912C65.8478 18.0912 67.8621 16.8602 68.9188 15.0217L66.0954 13.503Z" fill="white"/>
<path d="M38.2583 1.12901H41.7916V17.8674H38.2583V1.12901Z" fill="white"/>
<path d="M70.3056 1.12901V17.8674H73.8389V12.8475L78.0327 17.8674H82.5566L77.2237 11.9043L82.1604 6.34077H77.8346L73.8389 10.961V1.12901H70.3056Z" fill="white"/>
<path d="M52.2925 13.5349C51.7806 14.3502 50.724 14.9577 49.5352 14.9577C47.9006 14.9577 46.5798 13.6788 46.5798 12.0961C46.5798 10.5134 47.9006 9.23441 49.5352 9.23441C50.724 9.23441 51.7806 9.87387 52.2925 10.7052V13.5349ZM52.2925 6.34077V7.69969C51.7146 6.75643 50.2782 6.10097 48.7757 6.10097C45.6717 6.10097 43.2281 8.75483 43.2281 12.0801C43.2281 15.4054 45.6717 18.0912 48.7757 18.0912C50.2782 18.0912 51.7146 17.4357 52.2925 16.4925V17.8514H55.8258V6.34077H52.2925Z" fill="white"/>
<path d="M5.30574 13.7755C5.30574 14.996 4.31927 15.9825 3.09873 15.9825C1.87819 15.9825 0.89172 14.996 0.89172 13.7755C0.89172 12.555 1.87819 11.5685 3.09873 11.5685H5.30574V13.7755Z" fill="white"/>
<path d="M6.40925 13.7755C6.40925 12.555 7.39571 11.5685 8.61626 11.5685C9.8368 11.5685 10.8232 12.555 10.8232 13.7755V19.293C10.8232 20.5136 9.8368 21.5 8.61626 21.5C7.39571 21.5 6.40925 20.5136 6.40925 19.293V13.7755Z" fill="white"/>
<path d="M8.61625 4.91402C7.39571 4.91402 6.40925 3.92755 6.40925 2.70701C6.40925 1.48647 7.39571 0.5 8.61625 0.5C9.8368 0.5 10.8232 1.48647 10.8232 2.70701V4.91402H8.61625Z" fill="white"/>
<path d="M8.61625 6.03424C9.8368 6.03424 10.8232 7.02074 10.8232 8.24129C10.8232 9.46183 9.8368 10.4483 8.61625 10.4483H3.08201C1.86147 10.4483 0.875 9.46183 0.875 8.24129C0.875 7.02074 1.86147 6.03424 3.08201 6.03424H8.61625Z" fill="white"/>
<path d="M17.461 8.24129C17.461 7.02074 18.4475 6.03424 19.668 6.03424C20.8885 6.03424 21.875 7.02074 21.875 8.24129C21.875 9.46183 20.8885 10.4483 19.668 10.4483H17.461V8.24129Z" fill="white"/>
<path d="M16.3575 8.24129C16.3575 9.46183 15.371 10.4483 14.1505 10.4483C12.93 10.4483 11.9435 9.46183 11.9435 8.24129V2.70701C11.9435 1.48647 12.93 0.5 14.1505 0.5C15.371 0.5 16.3575 1.48647 16.3575 2.70701V8.24129Z" fill="white"/>
<path d="M14.1505 17.086C15.371 17.086 16.3575 18.0725 16.3575 19.293C16.3575 20.5136 15.371 21.5 14.1505 21.5C12.93 21.5 11.9435 20.5136 11.9435 19.293V17.086H14.1505Z" fill="white"/>
<path d="M14.1505 15.9825C12.93 15.9825 11.9435 14.996 11.9435 13.7755C11.9435 12.555 12.93 11.5685 14.1505 11.5685H19.6847C20.9053 11.5685 21.8917 12.555 21.8917 13.7755C21.8917 14.996 20.9053 15.9825 19.6847 15.9825H14.1505Z" fill="white"/>
</svg>
