<svg width="48" height="48" viewBox="0 0 48 48" fill="none" xmlns="http://www.w3.org/2000/svg">
<rect width="48" height="48" rx="24" fill="#437EF7"/>
<path d="M31.9998 20.0007C34.9454 20.0007 37.3332 17.6128 37.3332 14.6673C37.3332 11.7218 34.9454 9.33398 31.9998 9.33398C29.0543 9.33398 26.6665 11.7218 26.6665 14.6673C26.6665 15.1703 26.7361 15.657 26.8663 16.1183L19.7885 20.247C18.8221 19.2715 17.4815 18.6673 15.9998 18.6673C13.0543 18.6673 10.6665 21.0551 10.6665 24.0007C10.6665 26.9462 13.0543 29.334 15.9998 29.334C17.4815 29.334 18.8221 28.7298 19.7885 27.7543L26.8663 31.883C26.7361 32.3443 26.6665 32.831 26.6665 33.334C26.6665 36.2795 29.0543 38.6673 31.9998 38.6673C34.9454 38.6673 37.3332 36.2795 37.3332 33.334C37.3332 30.3885 34.9454 28.0006 31.9998 28.0006C30.5182 28.0006 29.1776 28.6048 28.2111 29.5803L21.1334 25.4516C21.2635 24.9903 21.3332 24.5036 21.3332 24.0007C21.3332 23.4977 21.2635 23.011 21.1334 22.5497L28.2111 18.421C29.1776 19.3965 30.5182 20.0007 31.9998 20.0007Z" fill="white"/>
</svg>
