<svg width="48" height="48" viewBox="0 0 48 48" fill="none" xmlns="http://www.w3.org/2000/svg">
<rect width="48" height="48" rx="24" fill="#437EF7"/>
<path d="M19.9737 21.0075C20.8216 22.7736 21.9775 24.4288 23.4414 25.8926C24.9052 27.3565 26.5605 28.5124 28.3265 29.3603C28.4784 29.4332 28.5544 29.4697 28.6505 29.4977C28.992 29.5973 29.4114 29.5258 29.7007 29.3186C29.7821 29.2604 29.8517 29.1907 29.991 29.0515C30.4169 28.6255 30.6299 28.4126 30.844 28.2734C31.6516 27.7483 32.6927 27.7483 33.5003 28.2734C33.7144 28.4126 33.9274 28.6256 34.3533 29.0515L34.5907 29.2889C35.2382 29.9363 35.5619 30.26 35.7377 30.6077C36.0875 31.2992 36.0875 32.1157 35.7377 32.8072C35.5619 33.1549 35.2382 33.4786 34.5907 34.126L34.3987 34.3181C33.7534 34.9633 33.4308 35.2859 32.9922 35.5323C32.5055 35.8057 31.7496 36.0023 31.1913 36.0006C30.6882 35.9991 30.3444 35.9016 29.6568 35.7064C25.9612 34.6575 22.4741 32.6784 19.5648 29.7692C16.6556 26.8599 14.6766 23.3728 13.6276 19.6773C13.4325 18.9896 13.3349 18.6458 13.3334 18.1427C13.3317 17.5845 13.5283 16.8285 13.8017 16.3418C14.0481 15.9032 14.3707 15.5806 15.016 14.9353L15.208 14.7433C15.8554 14.0959 16.1792 13.7721 16.5268 13.5963C17.2183 13.2466 18.0349 13.2466 18.7263 13.5963C19.074 13.7721 19.3977 14.0959 20.0451 14.7433L20.2826 14.9807C20.7085 15.4066 20.9214 15.6196 21.0607 15.8337C21.5857 16.6413 21.5857 17.6824 21.0607 18.49C20.9214 18.7042 20.7085 18.9171 20.2826 19.3431C20.1433 19.4823 20.0737 19.5519 20.0154 19.6333C19.8083 19.9226 19.7367 20.342 19.8363 20.6836C19.8643 20.7797 19.9008 20.8556 19.9737 21.0075Z" fill="white"/>
</svg>
