<svg width="49" height="48" viewBox="0 0 49 48" fill="none" xmlns="http://www.w3.org/2000/svg">
<rect x="0.5" width="48" height="48" rx="5" fill="#F5FAFF"/>
<path d="M17.8333 17.334C17.8333 14.3885 20.2211 12.0007 23.1667 12.0007C26.1122 12.0007 28.5 14.3885 28.5 17.334C28.5 18.0704 29.097 18.6673 29.8333 18.6673C30.5697 18.6673 31.1667 18.0704 31.1667 17.334C31.1667 12.9157 27.5849 9.33398 23.1667 9.33398C18.7484 9.33398 15.1667 12.9157 15.1667 17.334C15.1667 18.4693 15.404 19.5527 15.8329 20.5345C16.1277 21.2093 16.9138 21.5173 17.5886 21.2225C18.2633 20.9276 18.5714 20.1416 18.2765 19.4668C17.9919 18.8154 17.8333 18.095 17.8333 17.334Z" fill="#437EF7"/>
<path d="M35.07 27.3583L32.5476 38.6673L20.5032 38.6673L19.6758 36.1943C19.1038 34.4848 17.8737 33.0717 16.256 32.2659L13.9892 31.1366C12.7904 30.5395 12.2148 29.1549 12.6386 27.8881C13.1569 26.339 14.9322 25.6064 16.3981 26.3366L20.5032 28.3816L20.5 17.334C20.5 15.9138 21.7412 14.6673 23.1667 14.6673C24.5921 14.6673 25.8333 15.8186 25.8333 17.2387V21.334L31.8109 22.545C34.0813 22.922 35.5694 25.1197 35.07 27.3583Z" fill="#437EF7"/>
</svg>
