<svg width="49" height="48" viewBox="0 0 49 48" fill="none" xmlns="http://www.w3.org/2000/svg">
<rect x="0.5" width="48" height="48" rx="5" fill="#F5FAFF"/>
<path d="M23.5399 12.235C24.1445 11.9217 24.8561 11.9217 25.4607 12.235L35.3132 17.3421C36.896 18.1625 36.896 20.5041 35.3132 21.3246L25.4607 26.4316C24.8561 26.745 24.1445 26.745 23.5399 26.4316L13.6874 21.3246C12.1046 20.5041 12.1046 18.1625 13.6874 17.3421L23.5399 12.235Z" fill="#437EF7"/>
<path d="M14.4334 24.1425C13.7758 23.8113 12.9741 24.0759 12.6428 24.7335C12.3116 25.3912 12.5761 26.1929 13.2338 26.5241L23.6023 31.7469C24.1673 32.0315 24.8333 32.0315 25.3983 31.7469L35.7668 26.5241C36.4244 26.1929 36.689 25.3912 36.3577 24.7335C36.0265 24.0759 35.2248 23.8113 34.5671 24.1425L24.5003 29.2134L14.4334 24.1425Z" fill="#437EF7"/>
<path d="M14.4334 29.5155C13.7758 29.1842 12.9741 29.4488 12.6428 30.1065C12.3116 30.7641 12.5761 31.5658 13.2338 31.8971L23.6023 37.1199C24.1673 37.4045 24.8333 37.4045 25.3983 37.1199L35.7668 31.8971C36.4244 31.5658 36.689 30.7641 36.3577 30.1065C36.0265 29.4488 35.2248 29.1842 34.5671 29.5155L24.5003 34.5863L14.4334 29.5155Z" fill="#437EF7"/>
</svg>
