<svg width="49" height="48" viewBox="0 0 49 48" fill="none" xmlns="http://www.w3.org/2000/svg">
<rect x="0.5" width="48" height="48" rx="5" fill="#F5FAFF"/>
<path d="M29.2977 21.5781C29.5357 21.816 29.7674 22.0477 29.9476 22.26C30.1455 22.4932 30.3583 22.789 30.4838 23.1753C30.6578 23.7109 30.6578 24.2878 30.4838 24.8234C30.3583 25.2097 30.1455 25.5055 29.9476 25.7387C29.7674 25.9509 29.5357 26.1826 29.2977 26.4205L26.7761 28.9422C26.2554 29.4629 25.4112 29.4629 24.8905 28.9422C24.3698 28.4215 24.3698 27.5772 24.8905 27.0565L26.6143 25.3327H13.8333C13.097 25.3327 12.5 24.7357 12.5 23.9993C12.5 23.263 13.097 22.666 13.8333 22.666H26.6143L24.8905 20.9422C24.3698 20.4215 24.3698 19.5772 24.8905 19.0565C25.4112 18.5358 26.2554 18.5358 26.7761 19.0565L29.2977 21.5781Z" fill="#437EF7"/>
<path d="M19.1667 14.9327C19.1667 13.4392 19.1667 12.6925 19.4573 12.122C19.713 11.6203 20.1209 11.2123 20.6227 10.9567C21.1931 10.666 21.9399 10.666 23.4333 10.666H30.9C32.3935 10.666 33.1402 10.666 33.7106 10.9567C34.2124 11.2123 34.6204 11.6203 34.876 12.122C35.1667 12.6925 35.1667 13.4392 35.1667 14.9327V33.066C35.1667 34.5595 35.1667 35.3062 34.876 35.8767C34.6204 36.3784 34.2124 36.7864 33.7106 37.042C33.1402 37.3327 32.3935 37.3327 30.9 37.3327H23.4333C21.9399 37.3327 21.1931 37.3327 20.6227 37.042C20.1209 36.7864 19.713 36.3784 19.4573 35.8767C19.1667 35.3062 19.1667 34.5595 19.1667 33.066V27.9994H21.8333C21.8333 29.023 22.2238 30.0467 23.0049 30.8278C24.567 32.3899 27.0996 32.3899 28.6617 30.8278L31.2149 28.2746C31.4289 28.0608 31.7282 27.7618 31.9805 27.4645C32.2863 27.1042 32.7426 26.5011 33.02 25.6474C33.368 24.5763 33.368 23.4224 33.02 22.3513C32.7426 21.4976 32.2863 20.8945 31.9805 20.5342C31.7281 20.2369 31.4289 19.9379 31.2149 19.7241L28.6617 17.1709C27.0996 15.6088 24.567 15.6088 23.0049 17.1709C22.2238 17.952 21.8333 18.9757 21.8333 19.9994H19.1667V14.9327Z" fill="#437EF7"/>
</svg>
