<svg width="49" height="48" viewBox="0 0 49 48" fill="none" xmlns="http://www.w3.org/2000/svg">
<rect x="0.5" width="48" height="48" rx="5" fill="#F5FAFF"/>
<path fill-rule="evenodd" clip-rule="evenodd" d="M25.8333 10.6673C25.8333 9.93094 25.2364 9.33398 24.5 9.33398C23.7636 9.33398 23.1667 9.93094 23.1667 10.6673V12.0007C19.4848 12.0007 16.5 14.9854 16.5 18.6673C16.5 22.3492 19.4848 25.334 23.1667 25.334V33.334C20.9575 33.334 19.1667 31.5431 19.1667 29.334C19.1667 28.5976 18.5697 28.0006 17.8333 28.0006C17.097 28.0006 16.5 28.5976 16.5 29.334C16.5 33.0159 19.4848 36.0006 23.1667 36.0006L23.1667 37.334C23.1667 38.0704 23.7636 38.6673 24.5 38.6673C25.2364 38.6673 25.8333 38.0704 25.8333 37.334L25.8333 36.0006C29.5152 36.0006 32.5 33.0159 32.5 29.334C32.5 25.6521 29.5152 22.6673 25.8333 22.6673V14.6673C28.0425 14.6673 29.8333 16.4582 29.8333 18.6673C29.8333 19.4037 30.4303 20.0007 31.1667 20.0007C31.903 20.0007 32.5 19.4037 32.5 18.6673C32.5 14.9854 29.5152 12.0007 25.8333 12.0007V10.6673ZM29.8333 29.334C29.8333 31.5431 28.0425 33.334 25.8333 33.334V25.334C28.0425 25.334 29.8333 27.1248 29.8333 29.334ZM19.1667 18.6673C19.1667 16.4582 20.9575 14.6673 23.1667 14.6673V22.6673C20.9575 22.6673 19.1667 20.8765 19.1667 18.6673Z" fill="#437EF7"/>
</svg>
