<svg width="1441" height="357" viewBox="0 0 1441 357" fill="none" xmlns="http://www.w3.org/2000/svg">
<g filter="url(#filter0_d_171_24765)">
<rect x="137.5" y="234" width="120" height="120" rx="60" fill="white" shape-rendering="crispEdges"/>
<path d="M177.217 310.108C176.024 310.111 174.851 309.797 173.818 309.198C172.786 308.599 171.931 307.736 171.341 306.698C170.76 305.668 170.47 304.499 170.502 303.317C170.535 302.134 170.889 300.983 171.525 299.986L183.627 280.982C184.247 279.96 185.126 279.121 186.176 278.551C187.225 277.981 188.408 277.699 189.601 277.736C190.795 277.764 191.959 278.109 192.974 278.735C193.99 279.362 194.822 280.246 195.383 281.299C196.511 283.433 196.37 285.999 195.019 288.002L182.925 307.006C182.312 307.962 181.467 308.747 180.469 309.29C179.471 309.832 178.353 310.114 177.217 310.108Z" fill="#F62B54"/>
<path d="M197.975 310.108C195.535 310.108 193.289 308.803 192.109 306.706C191.529 305.678 191.24 304.513 191.273 303.333C191.305 302.154 191.658 301.006 192.294 300.011L204.373 281.051C204.983 280.015 205.859 279.161 206.911 278.578C207.962 277.996 209.15 277.704 210.352 277.736C212.813 277.789 215.044 279.166 216.172 281.32C217.293 283.474 217.129 286.056 215.736 288.053L203.66 307.014C203.048 307.965 202.207 308.748 201.214 309.289C200.22 309.829 199.107 310.111 197.975 310.108Z" fill="#FFCC00"/>
<path d="M218.269 310.267C221.711 310.267 224.5 307.536 224.5 304.168C224.5 300.799 221.711 298.068 218.269 298.068C214.828 298.068 212.039 300.799 212.039 304.168C212.039 307.536 214.828 310.267 218.269 310.267Z" fill="#00CA72"/>
<rect x="138" y="234.5" width="119" height="119" rx="59.5" stroke="#DAE0E6" shape-rendering="crispEdges"/>
</g>
<g filter="url(#filter1_d_171_24765)">
<rect x="389.5" y="73" width="120" height="120" rx="60" fill="white" shape-rendering="crispEdges"/>
<path d="M467.411 116.398C467.374 116.125 467.135 115.974 466.938 115.958C466.741 115.941 462.897 115.883 462.897 115.883C462.897 115.883 459.682 112.761 459.365 112.443C459.047 112.125 458.427 112.221 458.186 112.293C458.186 112.293 457.582 112.48 456.571 112.794C456.401 112.245 456.153 111.571 455.797 110.894C454.653 108.71 452.977 107.555 450.951 107.552H450.944C450.803 107.552 450.663 107.565 450.523 107.577C450.463 107.505 450.403 107.435 450.34 107.366C449.457 106.422 448.326 105.962 446.97 106.002C444.355 106.077 441.749 107.967 439.637 111.322C438.151 113.683 437.02 116.65 436.699 118.946C433.695 119.877 431.595 120.527 431.549 120.542C430.032 121.018 429.985 121.065 429.787 122.494C429.64 123.574 425.673 154.25 425.673 154.25L458.918 160L473.327 156.418C473.327 156.418 467.449 116.671 467.411 116.398ZM454.906 113.309C454.141 113.546 453.27 113.815 452.326 114.107C452.307 112.783 452.15 110.94 451.532 109.348C453.517 109.724 454.494 111.97 454.906 113.309ZM450.587 114.647C448.845 115.186 446.943 115.775 445.036 116.365C445.573 114.311 446.59 112.266 447.839 110.925C448.304 110.426 448.954 109.871 449.724 109.553C450.448 111.063 450.605 113.201 450.587 114.647ZM447.023 107.743C447.637 107.73 448.154 107.865 448.596 108.155C447.889 108.522 447.206 109.05 446.564 109.737C444.903 111.52 443.63 114.287 443.122 116.957C441.538 117.447 439.989 117.928 438.563 118.368C439.463 114.166 442.985 107.86 447.023 107.743Z" fill="#95BF47"/>
<path d="M466.938 115.958C466.741 115.941 462.897 115.883 462.897 115.883C462.897 115.883 459.682 112.761 459.365 112.443C459.246 112.325 459.087 112.265 458.92 112.239L458.921 159.999L473.327 156.418C473.327 156.418 467.449 116.671 467.411 116.398C467.374 116.125 467.135 115.974 466.938 115.958Z" fill="#5E8E3E"/>
<path d="M450.933 123.367L449.26 129.628C449.26 129.628 447.393 128.779 445.18 128.918C441.935 129.123 441.901 131.17 441.934 131.684C442.11 134.484 449.477 135.095 449.89 141.654C450.215 146.813 447.153 150.343 442.741 150.622C437.445 150.956 434.53 147.832 434.53 147.832L435.652 143.059C435.652 143.059 438.587 145.273 440.936 145.125C442.47 145.028 443.018 143.78 442.963 142.897C442.732 139.245 436.734 139.46 436.355 133.459C436.035 128.409 439.352 123.291 446.671 122.83C449.49 122.648 450.933 123.367 450.933 123.367Z" fill="white"/>
<rect x="390" y="73.5" width="119" height="119" rx="59.5" stroke="#DAE0E6" shape-rendering="crispEdges"/>
</g>
<g filter="url(#filter2_d_171_24765)">
<rect x="85.5" y="3" width="120" height="120" rx="60" fill="white" shape-rendering="crispEdges"/>
<path d="M172.104 57.2118C169.57 45.5616 155.608 38.7107 140.914 41.9058C126.22 45.1009 116.366 57.1388 118.896 68.7857C121.427 80.4326 135.392 87.2901 150.083 84.0917C164.774 80.8933 174.635 68.8719 172.104 57.2118ZM145.502 73.7375C143.379 73.7375 141.304 73.1076 139.539 71.9277C137.774 70.7477 136.399 69.0705 135.586 67.1083C134.774 65.146 134.562 62.9868 134.976 60.9037C135.39 58.8206 136.412 56.9072 137.913 55.4053C139.414 53.9035 141.326 52.8807 143.408 52.4664C145.49 52.052 147.648 52.2647 149.609 53.0775C151.57 53.8902 153.246 55.2667 154.425 57.0326C155.605 58.7986 156.234 60.8748 156.234 62.9987C156.234 64.409 155.956 65.8054 155.417 67.1083C154.878 68.4111 154.087 69.595 153.091 70.5922C152.094 71.5893 150.911 72.3803 149.609 72.92C148.307 73.4597 146.911 73.7375 145.502 73.7375Z" fill="#008C99"/>
<path d="M147.88 47.9645C144.833 47.9652 141.854 48.87 139.32 50.5647C136.786 52.2593 134.812 54.6676 133.646 57.485C132.48 60.3025 132.175 63.4026 132.77 66.3933C133.365 69.384 134.833 72.131 136.988 74.287C139.144 76.443 141.889 77.9112 144.878 78.5059C147.867 79.1005 150.966 78.795 153.781 77.6279C156.597 76.4608 159.003 74.4845 160.696 71.949C162.389 69.4135 163.293 66.4326 163.293 63.3832C163.293 61.3581 162.894 59.3529 162.12 57.482C161.345 55.6111 160.21 53.9112 158.778 52.4794C157.347 51.0476 155.648 49.9119 153.778 49.1373C151.908 48.3626 149.904 47.9641 147.88 47.9645ZM145.505 72.3785C143.651 72.3785 141.839 71.8284 140.297 70.7978C138.755 69.7671 137.554 68.3022 136.844 66.5882C136.135 64.8743 135.949 62.9883 136.311 61.1688C136.673 59.3493 137.566 57.678 138.877 56.3662C140.188 55.0544 141.858 54.1611 143.676 53.7992C145.495 53.4372 147.38 53.623 149.092 54.3329C150.805 55.0429 152.269 56.2451 153.299 57.7876C154.329 59.3301 154.879 61.1436 154.879 62.9987C154.879 65.4858 153.892 67.8711 152.135 69.6301C150.378 71.389 147.991 72.3777 145.505 72.3785Z" fill="#70CCD3"/>
<rect x="86" y="3.5" width="119" height="119" rx="59.5" stroke="#DAE0E6" shape-rendering="crispEdges"/>
</g>
<g filter="url(#filter3_d_171_24765)">
<rect x="214.5" y="109" width="88" height="88" rx="44" fill="white" shape-rendering="crispEdges"/>
<path d="M279.454 153C279.454 164.598 270.073 174 258.5 174C246.927 174 237.546 164.598 237.546 153C237.546 141.402 246.927 132 258.5 132C270.073 132 279.454 141.402 279.454 153Z" fill="white"/>
<path d="M258.5 132C246.927 132 237.546 141.402 237.546 153C237.546 161.897 243.067 169.499 250.861 172.559C250.678 170.898 250.513 168.342 250.934 166.529C251.315 164.89 253.391 156.09 253.391 156.09C253.391 156.09 252.764 154.832 252.764 152.972C252.764 150.052 254.453 147.872 256.556 147.872C258.344 147.872 259.207 149.217 259.207 150.83C259.207 152.632 258.063 155.326 257.472 157.823C256.978 159.913 258.518 161.617 260.575 161.617C264.299 161.617 267.162 157.682 267.162 152.001C267.162 146.973 263.557 143.457 258.409 143.457C252.447 143.457 248.947 147.939 248.947 152.571C248.947 154.376 249.641 156.311 250.507 157.363C250.678 157.571 250.703 157.753 250.652 157.965C250.493 158.629 250.14 160.055 250.07 160.347C249.979 160.731 249.767 160.813 249.369 160.628C246.752 159.407 245.116 155.572 245.116 152.492C245.116 145.868 249.919 139.784 258.961 139.784C266.23 139.784 271.879 144.975 271.879 151.913C271.879 159.15 267.326 164.975 261.006 164.975C258.883 164.975 256.887 163.869 256.203 162.564C256.203 162.564 255.153 166.573 254.898 167.556C254.425 169.38 253.148 171.666 252.293 173.061C254.254 173.669 256.34 174 258.5 174C270.073 174 279.454 164.598 279.454 153C279.454 141.402 270.073 132 258.5 132Z" fill="#E60023"/>
<rect x="215" y="109.5" width="87" height="87" rx="43.5" stroke="#DAE0E6" shape-rendering="crispEdges"/>
</g>
<g filter="url(#filter4_d_171_24765)">
<rect x="20.5" y="146" width="88" height="88" rx="44" fill="white" shape-rendering="crispEdges"/>
<path d="M64.528 178.852L54.014 185.575L64.528 192.298L54.014 199.021L43.5 192.242L54.014 185.519L43.5 178.852L54.014 172.129L64.528 178.852ZM53.9581 201.149L64.472 194.427L74.986 201.149L64.472 207.872L53.9581 201.149ZM64.528 192.242L75.0419 185.519L64.528 178.852L74.986 172.129L85.5 178.852L74.986 185.575L85.5 192.298L74.986 199.021L64.528 192.242Z" fill="#0061FF"/>
<rect x="21" y="146.5" width="87" height="87" rx="43.5" stroke="#DAE0E6" shape-rendering="crispEdges"/>
</g>
<g filter="url(#filter5_d_171_24765)">
<rect x="313.5" y="207" width="88" height="88" rx="44" fill="white" shape-rendering="crispEdges"/>
<path d="M357.5 264.247C357.941 264.247 358.361 264.143 358.76 263.912L363.357 261.266C364.281 260.741 365.351 260.511 366.422 260.637C372.006 261.287 375.911 262.337 377.066 262.673C377.297 262.736 377.57 262.652 377.716 262.463C377.906 262.232 378.136 261.854 378.325 261.308C378.493 260.784 378.514 260.343 378.493 260.028C378.472 259.776 378.304 259.545 378.052 259.482C376.247 258.957 368.249 256.795 357.5 256.795C346.751 256.795 338.753 258.957 336.948 259.482C336.696 259.545 336.528 259.776 336.507 260.028C336.486 260.322 336.507 260.763 336.675 261.308C336.842 261.854 337.095 262.232 337.283 262.463C337.43 262.652 337.703 262.736 337.934 262.673C339.089 262.337 343.015 261.287 348.578 260.637C349.648 260.511 350.719 260.742 351.643 261.266L356.24 263.912C356.639 264.143 357.08 264.247 357.5 264.247ZM349.837 249.363C350.089 249.804 350.488 250.098 350.95 250.224C351.412 250.35 351.895 250.287 352.336 250.035C352.776 249.783 353.07 249.384 353.196 248.922C353.322 248.46 353.259 247.978 353.007 247.537L348.872 240.378C348.746 240.147 348.473 240.063 348.221 240.084C347.885 240.105 347.423 240.273 346.877 240.588C346.332 240.903 345.954 241.218 345.765 241.491C345.618 241.701 345.576 241.974 345.702 242.204L349.837 249.363ZM346.059 254.486C346.499 254.738 347.003 254.779 347.444 254.675C347.906 254.548 348.305 254.255 348.557 253.814C348.809 253.373 348.851 252.869 348.746 252.428C348.641 251.987 348.326 251.567 347.885 251.316L340.726 247.18C340.495 247.054 340.223 247.096 340.013 247.243C339.74 247.432 339.425 247.81 339.11 248.356C338.795 248.901 338.627 249.363 338.606 249.699C338.585 249.972 338.69 250.224 338.9 250.35L346.059 254.486ZM359.326 246.823C359.326 247.327 359.116 247.789 358.802 248.125C358.466 248.461 358.025 248.649 357.5 248.649C356.996 248.649 356.534 248.439 356.198 248.125C355.863 247.789 355.674 247.348 355.674 246.823V238.573C355.674 238.3 355.842 238.09 356.093 237.985C356.387 237.838 356.87 237.754 357.5 237.754C358.13 237.754 358.613 237.838 358.906 237.985C359.137 238.111 359.326 238.3 359.326 238.573V246.823ZM365.163 249.363C364.911 249.804 364.512 250.098 364.05 250.224C363.588 250.35 363.105 250.287 362.664 250.035C362.224 249.783 361.93 249.384 361.804 248.922C361.678 248.46 361.741 247.978 361.993 247.537L366.128 240.378C366.254 240.147 366.527 240.063 366.779 240.084C367.115 240.105 367.577 240.273 368.123 240.588C368.668 240.903 369.046 241.218 369.235 241.491C369.382 241.701 369.424 241.974 369.298 242.204L365.163 249.363ZM368.941 254.486C368.501 254.738 367.997 254.779 367.556 254.675C367.094 254.548 366.695 254.255 366.443 253.814C366.191 253.373 366.149 252.869 366.254 252.428C366.38 251.966 366.674 251.567 367.115 251.316L374.274 247.18C374.505 247.054 374.778 247.096 374.987 247.243C375.26 247.432 375.575 247.81 375.89 248.356C376.205 248.901 376.373 249.363 376.394 249.699C376.415 249.972 376.31 250.224 376.1 250.35L368.941 254.486Z" fill="#0770E3"/>
<rect x="314" y="207.5" width="87" height="87" rx="43.5" stroke="#DAE0E6" shape-rendering="crispEdges"/>
</g>
<g filter="url(#filter6_d_171_24765)">
<rect x="533.5" y="1" width="88" height="88" rx="44" fill="white" shape-rendering="crispEdges"/>
<path d="M588.322 36.5074L577.498 30.2537L566.677 36.5074V30.2537L577.5 24L588.323 30.2537L588.322 36.5074Z" fill="#A435F0"/>
<path d="M572.347 41.7602V55.5441C572.347 59.1054 575.005 60.8417 577.5 60.8417C580.017 60.8417 582.655 59.0602 582.655 55.4971V41.7602H588.323V55.8732C588.323 59.1542 587.292 61.6846 585.232 63.4209C583.169 65.1554 580.593 66 577.451 66C574.313 66 571.736 65.1571 569.723 63.4209C567.708 61.6863 566.677 59.25 566.677 56.0126V41.7602H572.347Z" fill="black"/>
<rect x="534" y="1.5" width="87" height="87" rx="43.5" stroke="#DAE0E6" shape-rendering="crispEdges"/>
</g>
<g filter="url(#filter7_d_171_24765)">
<rect x="827.5" y="235" width="88" height="88" rx="44" fill="white" shape-rendering="crispEdges"/>
<path d="M870.461 277.958H850.503V258H870.461V277.958Z" fill="#F1511B"/>
<path d="M892.496 277.958H872.539V258H892.496V277.958Z" fill="#80CC28"/>
<path d="M870.46 300H850.503V280.042H870.46V300Z" fill="#00ADEF"/>
<path d="M892.496 300H872.539V280.042H892.496V300Z" fill="#FBBC09"/>
<rect x="828" y="235.5" width="87" height="87" rx="43.5" stroke="#DAE0E6" shape-rendering="crispEdges"/>
</g>
<g filter="url(#filter8_d_171_24765)">
<rect x="889.5" y="121" width="88" height="88" rx="44" fill="white" shape-rendering="crispEdges"/>
<path d="M954.487 164.126C954.545 165.274 954.409 166.403 954.077 167.512C953.765 168.602 953.278 169.653 952.634 170.587C951.991 171.541 951.192 172.377 950.275 173.058L950.256 173.078L941.501 179.636L937.172 182.905L934.559 184.89C934.403 185.007 934.234 185.092 934.052 185.143C933.87 185.208 933.682 185.241 933.487 185.241C933.292 185.241 933.103 185.208 932.921 185.143C932.739 185.092 932.577 185.007 932.434 184.89L929.802 182.905L925.493 179.636L916.796 173.117L916.757 173.078L916.718 173.058C915.821 172.377 915.022 171.541 914.378 170.587C913.715 169.653 913.228 168.602 912.916 167.512C912.604 166.403 912.468 165.274 912.506 164.126C912.565 162.978 912.799 161.849 913.208 160.779L913.267 160.643L918.98 145.716C919.006 145.638 919.038 145.567 919.077 145.502C919.116 145.437 919.162 145.373 919.214 145.308C919.266 145.243 919.318 145.184 919.37 145.133C919.435 145.081 919.5 145.035 919.565 144.996C919.76 144.88 919.994 144.802 920.228 144.763C920.462 144.743 920.696 144.782 920.91 144.86C921.144 144.938 921.339 145.074 921.495 145.249C921.651 145.424 921.768 145.638 921.827 145.872L925.687 157.685H941.306L945.166 145.872C945.244 145.638 945.342 145.424 945.517 145.249C945.673 145.074 945.868 144.938 946.083 144.86C946.317 144.782 946.551 144.743 946.785 144.763C947.019 144.802 947.233 144.88 947.448 144.996C947.513 145.035 947.571 145.081 947.623 145.133C947.688 145.184 947.747 145.243 947.799 145.308L947.916 145.502C947.955 145.567 947.994 145.638 948.033 145.716L953.746 160.623L953.804 160.779C954.214 161.849 954.448 162.978 954.487 164.126Z" fill="#E24329"/>
<path d="M954.487 164.126C954.545 165.274 954.409 166.403 954.097 167.512C953.765 168.602 953.278 169.653 952.634 170.587C951.991 171.541 951.192 172.377 950.275 173.058L950.256 173.078L941.501 179.636L933.506 173.584L946.063 164.087C946.622 163.659 947.207 163.27 947.818 162.92C948.429 162.556 949.06 162.232 949.71 161.947C950.36 161.648 951.022 161.389 951.698 161.168C952.361 160.948 953.044 160.766 953.746 160.623L953.804 160.779C954.214 161.849 954.448 162.978 954.487 164.126Z" fill="#FC6D26"/>
<path d="M933.506 173.584L941.501 179.636L937.172 182.905L934.559 184.89C934.403 185.007 934.234 185.092 934.052 185.143C933.87 185.208 933.682 185.241 933.487 185.241C933.292 185.241 933.103 185.208 932.921 185.143C932.739 185.092 932.577 185.007 932.434 184.89L929.802 182.905L925.493 179.636L933.506 173.584Z" fill="#FCA326"/>
<path d="M933.487 173.584L925.493 179.636L916.796 173.117L916.757 173.078L916.718 173.058C915.821 172.377 915.022 171.541 914.378 170.587C913.715 169.653 913.228 168.602 912.916 167.512C912.604 166.403 912.468 165.274 912.506 164.126C912.565 162.978 912.799 161.849 913.208 160.779L913.267 160.643C913.956 160.785 914.638 160.961 915.314 161.169C915.99 161.389 916.653 161.649 917.303 161.947C917.94 162.232 918.564 162.557 919.175 162.92C919.786 163.283 920.377 163.672 920.949 164.088L933.487 173.584Z" fill="#FC6D26"/>
<rect x="890" y="121.5" width="87" height="87" rx="43.5" stroke="#DAE0E6" shape-rendering="crispEdges"/>
</g>
<g filter="url(#filter9_d_171_24765)">
<rect x="585.5" y="123" width="64" height="64" rx="32" fill="white" shape-rendering="crispEdges"/>
<path d="M617.5 140C609.22 140 602.5 146.72 602.5 155C602.5 163.28 609.22 170 617.5 170C625.78 170 632.5 163.28 632.5 155C632.5 146.72 625.78 140 617.5 140ZM617.5 166.04C611.38 166.04 606.46 161.12 606.46 155C606.46 148.88 611.38 143.96 617.5 143.96C623.62 143.96 628.54 148.88 628.54 155C628.54 161.12 623.62 166.04 617.5 166.04Z" fill="#F12E45"/>
<path d="M621.22 154.4C622.943 154.4 624.34 153.003 624.34 151.28C624.34 149.557 622.943 148.16 621.22 148.16C619.497 148.16 618.1 149.557 618.1 151.28C618.1 153.003 619.497 154.4 621.22 154.4Z" fill="#F12E45"/>
<path d="M621.22 161.84C622.943 161.84 624.34 160.443 624.34 158.72C624.34 156.997 622.943 155.6 621.22 155.6C619.497 155.6 618.1 156.997 618.1 158.72C618.1 160.443 619.497 161.84 621.22 161.84Z" fill="#F12E45"/>
<path d="M613.78 161.84C615.503 161.84 616.9 160.443 616.9 158.72C616.9 156.997 615.503 155.6 613.78 155.6C612.057 155.6 610.66 156.997 610.66 158.72C610.66 160.443 612.057 161.84 613.78 161.84Z" fill="#F12E45"/>
<path d="M613.78 154.4C615.503 154.4 616.9 153.003 616.9 151.28C616.9 149.557 615.503 148.16 613.78 148.16C612.057 148.16 610.66 149.557 610.66 151.28C610.66 153.003 612.057 154.4 613.78 154.4Z" fill="#F12E45"/>
<rect x="586" y="123.5" width="63" height="63" rx="31.5" stroke="#DAE0E6" shape-rendering="crispEdges"/>
</g>
<g filter="url(#filter10_d_171_24765)">
<rect x="1001.5" y="204" width="64" height="64" rx="32" fill="white" shape-rendering="crispEdges"/>
<path d="M1044.26 221H1022.74C1021.24 221 1020.04 222.2 1020.04 223.7V248.3C1020.04 249.8 1021.24 251 1022.74 251H1044.26C1045.76 251 1046.96 249.8 1046.96 248.3V223.7C1046.96 222.2 1045.76 221 1044.26 221ZM1045.46 248.3C1045.46 248.975 1044.94 249.5 1044.26 249.5H1022.74C1022.06 249.5 1021.54 248.975 1021.54 248.3V223.7C1021.54 223.025 1022.06 222.5 1022.74 222.5H1044.26C1044.94 222.5 1045.46 223.025 1045.46 223.7V248.3ZM1026.79 246.5L1030.16 243.5L1026.79 240.5V246.5ZM1038.94 234.35C1038.34 233.75 1037.21 233 1035.34 233C1033.31 233 1031.21 233.525 1029.71 234.05V225.5H1026.71V238.475L1028.81 237.5C1028.81 237.5 1032.26 235.925 1035.26 235.925C1036.76 235.925 1037.14 236.75 1037.14 237.5V246.5H1040.14V237.5C1040.21 237.275 1040.21 235.625 1038.94 234.35ZM1034.96 230.375H1037.96C1039.31 228.8 1039.99 227.225 1040.21 225.5H1037.21C1036.91 227.225 1036.16 228.8 1034.96 230.375Z" fill="#430098"/>
<rect x="1002" y="204.5" width="63" height="63" rx="31.5" stroke="#DAE0E6" shape-rendering="crispEdges"/>
</g>
<g filter="url(#filter11_d_171_24765)">
<rect x="1141.5" y="24" width="64" height="64" rx="32" fill="white" shape-rendering="crispEdges"/>
<path d="M1179.06 44.2143L1160.51 54.9286V48.5L1173.5 41L1179.06 44.2143Z" fill="#221F20"/>
<path d="M1186.49 48.5V52.2088L1163.72 65.3544L1160.51 63.5V60.011L1183.46 46.7555L1186.49 48.5Z" fill="#221F20"/>
<path d="M1168.12 67.8956L1186.49 57.2912V63.5L1173.5 71L1168.12 67.8956Z" fill="#221F20"/>
<rect x="1142" y="24.5" width="63" height="63" rx="31.5" stroke="#DAE0E6" shape-rendering="crispEdges"/>
</g>
<g filter="url(#filter12_d_171_24765)">
<rect x="1253.5" y="246" width="64" height="64" rx="32" fill="white" shape-rendering="crispEdges"/>
<path fill-rule="evenodd" clip-rule="evenodd" d="M1275.87 269.218C1278.27 266.62 1281.39 264.99 1285.46 264.99C1291.98 264.99 1295.65 269.326 1297.67 273.692C1299.45 277.528 1300.1 281.656 1300.38 283.488C1300.42 283.727 1300.45 283.927 1300.48 284.082C1300.52 284.317 1300.5 284.559 1300.42 284.783C1299.68 286.798 1297.83 288.269 1295.69 289.25C1293.52 290.247 1290.85 290.841 1288.12 290.978C1282.73 291.248 1276.52 289.753 1273.33 285.309C1272.78 284.545 1273.07 284.251 1273.18 283.991L1273.18 283.984C1273.18 283.979 1273.18 283.973 1273.19 283.966C1273.19 283.95 1273.2 283.928 1273.21 283.899C1273.24 283.843 1273.27 283.761 1273.32 283.658C1273.41 283.451 1273.54 283.159 1273.7 282.81C1274.02 282.115 1274.48 281.181 1275.02 280.247C1275.54 279.326 1276.18 278.344 1276.86 277.59C1277.2 277.213 1277.59 276.847 1278.03 276.577C1278.46 276.309 1279.05 276.077 1279.72 276.146C1281.4 276.321 1282.5 277.621 1283.12 278.367L1283.14 278.383C1283.19 278.443 1283.24 278.5 1283.28 278.555C1283.57 278.897 1283.77 279.135 1283.96 279.312C1284 279.272 1284.04 279.226 1284.09 279.173C1284.4 278.827 1284.77 278.313 1285.16 277.689C1285.94 276.45 1286.71 274.951 1287.17 273.951C1287.49 273.27 1288.3 272.976 1288.98 273.295C1289.66 273.614 1289.96 274.425 1289.64 275.106C1289.14 276.171 1288.32 277.777 1287.46 279.141C1287.04 279.818 1286.57 280.48 1286.12 280.993C1285.89 281.248 1285.63 281.502 1285.34 281.705C1285.08 281.893 1284.67 282.131 1284.15 282.158C1283.25 282.204 1282.58 281.733 1282.16 281.36C1281.81 281.04 1281.46 280.624 1281.18 280.288C1281.14 280.236 1281.1 280.186 1281.06 280.139C1280.37 279.317 1279.94 278.944 1279.51 278.867C1279.49 278.875 1279.47 278.886 1279.45 278.901C1279.31 278.984 1279.12 279.146 1278.87 279.417C1278.39 279.956 1277.87 280.741 1277.38 281.601C1276.9 282.447 1276.47 283.308 1276.17 283.962C1276.11 284.087 1276.06 284.203 1276.01 284.31C1278.55 287.225 1283.28 288.491 1287.98 288.256C1290.44 288.133 1292.76 287.6 1294.56 286.773C1296.22 286.011 1297.27 285.08 1297.73 284.146C1297.72 284.064 1297.71 283.976 1297.69 283.885C1297.39 282.012 1296.81 278.294 1295.2 274.84C1293.39 270.936 1290.47 267.716 1285.46 267.716C1282.22 267.716 1279.81 268.972 1277.87 271.069C1275.89 273.214 1274.39 276.259 1273.14 279.813C1272.89 280.523 1272.12 280.895 1271.41 280.645C1270.7 280.395 1270.33 279.616 1270.58 278.907C1271.87 275.226 1273.52 271.768 1275.87 269.218Z" fill="#737885"/>
<rect x="1254" y="246.5" width="63" height="63" rx="31.5" stroke="#DAE0E6" shape-rendering="crispEdges"/>
</g>
<g filter="url(#filter13_d_171_24765)">
<rect x="297.5" y="24" width="64" height="64" rx="32" fill="white" shape-rendering="crispEdges"/>
<path d="M323.404 54.844C323.315 54.7273 323.197 54.6356 323.062 54.5778C322.927 54.5199 322.779 54.4979 322.633 54.5139C322.487 54.5298 322.348 54.5832 322.229 54.6689C322.11 54.7545 322.014 54.8695 321.953 55.0027L314.593 69.7213C314.526 69.8552 314.494 70.0042 314.501 70.1539C314.507 70.3037 314.552 70.4493 314.631 70.5769C314.709 70.7046 314.819 70.81 314.95 70.8833C315.081 70.9565 315.228 70.9951 315.378 70.9954H325.625C325.791 70.9986 325.955 70.953 326.095 70.8644C326.235 70.7757 326.346 70.6478 326.414 70.4966C328.623 65.9623 327.285 58.993 323.404 54.844Z" fill="url(#paint0_linear_171_24765)"/>
<path d="M328.804 41.4768C326.97 44.2991 325.9 47.5499 325.702 50.9102C325.503 54.2704 326.181 57.6246 327.67 60.6435L332.636 70.4966C332.708 70.643 332.82 70.7664 332.958 70.8529C333.097 70.9394 333.257 70.9856 333.42 70.9863H343.668C343.811 70.9745 343.95 70.9286 344.072 70.8524C344.195 70.7762 344.297 70.672 344.371 70.5483C344.445 70.4246 344.489 70.2851 344.498 70.1413C344.507 69.9974 344.482 69.8535 344.425 69.7213L330.3 41.4768C330.233 41.3357 330.127 41.2167 329.994 41.1334C329.862 41.0501 329.709 41.0059 329.552 41.0059C329.396 41.0059 329.243 41.0501 329.11 41.1334C328.978 41.2167 328.872 41.3357 328.804 41.4768Z" fill="#2684FF"/>
<rect x="298" y="24.5" width="63" height="63" rx="31.5" stroke="#DAE0E6" shape-rendering="crispEdges"/>
</g>
<g filter="url(#filter14_d_171_24765)">
<rect x="-41.5" y="74" width="64" height="64" rx="32" fill="white" shape-rendering="crispEdges"/>
<path d="M-4.96429 103.022C-3.18553 104.807 -1.7307 107.728 -2.56325 109.464C-4.78954 114.106 -21.4022 122.248 -22.813 120.838C-24.2238 119.43 -16.0631 102.841 -11.4116 100.617C-9.6726 99.786 -6.74589 101.238 -4.95719 103.014C-4.95719 103.014 -4.96003 103.018 -4.96429 103.022Z" fill="#FF8200"/>
<path d="M3.83716 101.062C3.54875 99.9945 2.81139 98.9152 1.71032 98.7876C-0.308544 98.5536 -3.48957 102.116 -3.26225 102.961C-3.03493 103.807 1.46027 105.297 3.13816 104.093C4.00338 103.472 4.12131 102.13 3.83716 101.062ZM-2.40981 91.1929C-0.910934 91.5986 0.604992 92.6296 0.784004 94.1698C1.11361 96.9949 -3.89022 101.448 -5.07795 101.131C-6.26568 100.813 -8.35842 94.5215 -6.66633 92.1715C-5.794 90.9604 -3.91153 90.7958 -2.40981 91.1929Z" fill="#43B02A"/>
<rect x="-41" y="74.5" width="63" height="63" rx="31.5" stroke="#DAE0E6" shape-rendering="crispEdges"/>
</g>
<g filter="url(#filter15_d_171_24765)">
<rect x="-1.5" y="275" width="64" height="64" rx="32" fill="white" shape-rendering="crispEdges"/>
<path fill-rule="evenodd" clip-rule="evenodd" d="M37.656 306.262H38.3192C38.4139 305.977 38.4139 305.598 38.3192 305.125C38.1297 304.461 37.9402 303.988 37.5612 304.082C37.1822 304.177 37.0875 304.651 37.277 305.409C37.3717 305.693 37.5612 306.072 37.656 306.262Z" fill="#101828"/>
<path fill-rule="evenodd" clip-rule="evenodd" d="M34.1504 306.83C34.4346 306.925 34.6241 307.02 34.7188 306.925C34.7188 306.925 34.7188 306.83 34.7188 306.641C34.5293 306.356 34.2451 306.167 33.9609 305.977C33.2976 305.693 32.5397 305.788 31.9712 306.262C31.7817 306.451 31.5922 306.641 31.5922 306.735C31.5922 306.735 31.5922 306.83 31.687 306.83C31.8765 306.83 32.4449 306.546 33.1082 306.546C33.4871 306.546 33.8661 306.641 34.1504 306.83Z" fill="#101828"/>
<path fill-rule="evenodd" clip-rule="evenodd" d="M33.5819 307.114C33.2029 307.209 33.0134 307.304 32.8239 307.399C32.7292 307.493 32.6344 307.588 32.6344 307.683V307.778H32.7292C32.8239 307.778 33.0134 307.683 33.0134 307.683C33.5819 307.493 33.8661 307.493 34.2451 307.588H34.5293V307.493C34.4346 307.304 34.0556 307.114 33.5819 307.114Z" fill="#101828"/>
<path fill-rule="evenodd" clip-rule="evenodd" d="M36.519 308.441C36.8032 308.536 37.0875 308.536 37.1822 308.346C37.277 308.157 37.1822 307.872 36.898 307.778C36.6137 307.683 36.3295 307.683 36.2348 307.872C36.14 307.967 36.2348 308.251 36.519 308.441Z" fill="#101828"/>
<path fill-rule="evenodd" clip-rule="evenodd" d="M38.2244 306.925C38.0349 306.925 37.8454 307.114 37.8454 307.493C37.8454 307.778 38.0349 308.062 38.2244 308.062C38.4139 308.062 38.6034 307.872 38.6034 307.493C38.6034 307.209 38.4139 306.925 38.2244 306.925Z" fill="#101828"/>
<path fill-rule="evenodd" clip-rule="evenodd" d="M23.8231 312.231C23.7283 312.136 23.7283 312.231 23.6336 312.231C23.5388 312.231 23.5388 312.231 23.4441 312.231C23.2546 312.231 23.1598 312.136 23.0651 312.041C22.9703 311.852 22.9703 311.662 23.0651 311.378C23.0651 311.378 23.0651 311.283 23.1598 311.283C23.3493 310.904 23.6336 310.241 23.2546 309.672C22.9703 309.199 22.5914 308.915 22.1176 308.82C21.6439 308.725 21.1702 308.915 20.8859 309.293C20.4122 309.767 20.3175 310.525 20.4122 310.809C20.4122 310.904 20.507 310.904 20.507 310.904C20.6017 310.904 20.6964 310.809 20.7912 310.62C20.7912 310.62 20.7912 310.62 20.7912 310.525C20.7912 310.43 20.8859 310.241 20.9807 310.051C21.0754 309.862 21.2649 309.767 21.5492 309.672C21.7387 309.578 22.0229 309.672 22.2124 309.767C22.4966 309.957 22.6861 310.43 22.4966 310.809C22.4019 310.999 22.3071 311.378 22.3071 311.662C22.4019 312.325 22.7809 312.515 23.0651 312.61C23.4441 312.61 23.6336 312.42 23.7283 312.325C23.9178 312.231 23.9178 312.231 23.8231 312.231Z" fill="#101828"/>
<path d="M43.5302 310.999C43.5302 310.999 43.4354 310.62 43.3407 310.241C43.246 309.862 43.1512 309.578 43.1512 309.578C43.6249 308.915 43.6249 308.251 43.5302 307.872C43.4354 307.399 43.246 307.02 42.867 306.641C42.488 306.262 41.73 305.883 40.6878 305.598C40.5931 305.598 40.2141 305.409 40.1193 305.409C40.1193 305.409 40.1193 304.082 40.0246 303.514C40.0246 303.135 39.9299 302.472 39.7404 301.903C39.5509 301.051 39.0771 300.387 38.6034 299.914C40.0246 298.492 40.8773 296.882 40.8773 295.555C40.8773 292.997 37.656 292.145 33.7714 293.755L32.9187 294.134L31.4027 292.618C26.9497 288.734 12.8325 304.272 17.3803 308.157L18.3278 309.009C18.0436 309.672 17.9488 310.43 18.0436 311.283C18.1383 312.325 18.7068 313.368 19.5595 314.126C20.4122 314.884 21.4544 315.357 22.4966 315.357C24.202 319.431 28.2761 321.895 32.9187 321.989C37.9402 322.179 42.2038 319.81 43.9092 315.547C44.0039 315.262 44.4777 313.936 44.4777 312.704C44.6671 311.567 44.0039 310.999 43.5302 310.999ZM22.9703 314.22C22.7809 314.22 22.6861 314.22 22.4966 314.22C20.9807 314.22 19.37 312.799 19.1805 311.188C18.991 309.388 19.9385 308.062 21.5492 307.683C21.7387 307.683 22.0229 307.588 22.2124 307.588C23.1598 307.683 24.4863 308.346 24.7705 310.336C25.0548 312.136 24.6758 313.936 22.9703 314.22ZM21.3597 306.641C20.3175 306.83 19.4648 307.399 18.8963 308.157C18.612 307.872 17.9488 307.399 17.8541 307.114C17.0014 305.504 18.8015 302.282 20.0332 300.482C23.1598 296.029 28.0866 292.618 30.3605 293.281C30.7395 293.376 31.9712 294.797 31.9712 294.797C31.9712 294.797 29.6973 296.029 27.6129 297.829C24.7705 300.008 22.5914 303.23 21.3597 306.641ZM37.277 313.557C37.277 313.462 37.277 313.368 37.277 313.368C37.277 313.368 34.9083 313.747 32.6344 312.894C32.9187 312.136 33.4871 312.42 34.5293 312.42C36.3295 312.515 37.8454 312.231 39.0771 311.946C40.1193 311.662 41.4458 311.094 42.488 310.241C42.867 310.999 42.9617 311.852 42.9617 311.852C42.9617 311.852 43.246 311.757 43.4354 311.946C43.6249 312.041 43.8144 312.325 43.7197 313.083C43.5302 314.41 42.9617 315.452 42.0143 316.494C41.4458 317.157 40.7826 317.631 39.9298 318.01C39.5509 318.2 39.0771 318.389 38.6034 318.579C35.0031 319.716 31.4027 318.484 30.2658 315.736C30.171 315.547 30.0763 315.357 30.0763 315.073C29.6026 313.273 29.9815 311.094 31.308 309.767C31.4027 309.672 31.4975 309.578 31.4975 309.483C31.4975 309.388 31.4027 309.293 31.4027 309.199C30.929 308.536 29.3183 307.399 29.6973 305.125C29.8868 303.514 31.308 302.377 32.6344 302.472H32.9187C33.4871 302.472 33.9609 302.567 34.4346 302.567C35.1926 302.567 35.9505 302.472 36.7085 301.809C36.9927 301.619 37.1822 301.335 37.5612 301.335H37.9402C38.1297 301.335 38.3192 301.43 38.5087 301.524C39.1719 301.998 39.2666 303.04 39.2666 303.798C39.2666 304.272 39.3614 305.314 39.3614 305.598C39.3614 306.262 39.5509 306.451 39.9298 306.546C40.1193 306.641 40.3088 306.641 40.5931 306.735C41.4458 307.02 42.0143 307.209 42.2985 307.588C42.488 307.778 42.5827 307.967 42.5827 308.251C42.6775 309.009 42.0143 309.957 40.2141 310.809C38.2244 311.757 35.761 311.946 34.1504 311.757C34.0556 311.757 33.5819 311.662 33.5819 311.662C32.2554 311.473 31.4975 313.178 32.2554 314.41C32.7292 315.168 34.1504 315.641 35.5715 315.641C38.7929 315.641 41.2563 314.22 42.2038 313.083C42.2038 313.083 42.2038 313.083 42.2985 312.989C42.2985 312.894 42.2985 312.894 42.2038 312.894C41.4458 313.368 38.1297 315.452 34.5293 314.884C34.5293 314.884 34.0556 314.789 33.6766 314.694C33.3924 314.599 32.7292 314.22 32.6344 313.557C35.3821 314.41 37.277 313.557 37.277 313.557ZM27.1392 300.482C28.2761 299.156 29.6026 298.113 30.8343 297.45C30.8343 297.45 30.929 297.45 30.929 297.545C30.8343 297.735 30.6448 298.113 30.55 298.398C30.55 298.398 30.55 298.492 30.6448 298.492C31.4027 298.019 32.7292 297.45 33.8661 297.356C33.9609 297.356 33.9609 297.45 33.8661 297.45C33.6766 297.545 33.4871 297.735 33.3924 297.924V298.019C34.2451 298.019 35.3821 298.303 36.14 298.777C36.2348 298.777 36.14 298.871 36.14 298.871C35.0031 298.587 33.1082 298.398 31.2132 298.871C29.4131 299.25 28.0866 299.914 27.1392 300.482C27.1392 300.672 27.0444 300.577 27.1392 300.482Z" fill="#101828"/>
<rect x="-1" y="275.5" width="63" height="63" rx="31.5" stroke="#DAE0E6" shape-rendering="crispEdges"/>
</g>
<g filter="url(#filter16_d_171_24765)">
<rect x="1125.5" y="188" width="88" height="88" rx="44" fill="white" shape-rendering="crispEdges"/>
<path d="M1169.53 220.852L1159.01 227.575L1169.53 234.298L1159.01 241.021L1148.5 234.242L1159.01 227.519L1148.5 220.852L1159.01 214.129L1169.53 220.852ZM1158.96 243.149L1169.47 236.427L1179.99 243.149L1169.47 249.872L1158.96 243.149ZM1169.53 234.242L1180.04 227.519L1169.53 220.852L1179.99 214.129L1190.5 220.852L1179.99 227.575L1190.5 234.298L1179.99 241.021L1169.53 234.242Z" fill="#0061FF"/>
<rect x="1126" y="188.5" width="87" height="87" rx="43.5" stroke="#DAE0E6" shape-rendering="crispEdges"/>
</g>
<g filter="url(#filter17_d_171_24765)">
<rect x="1353.5" y="199" width="88" height="88" rx="44" fill="white" shape-rendering="crispEdges"/>
<path fill-rule="evenodd" clip-rule="evenodd" d="M1379.96 254.267L1386.44 249.319C1389.87 253.798 1393.53 255.862 1397.59 255.862C1401.64 255.862 1405.19 253.822 1408.48 249.378L1415.04 254.208C1410.3 260.615 1404.41 264 1397.59 264C1390.8 264 1384.85 260.639 1379.96 254.267Z" fill="url(#paint1_linear_171_24765)"/>
<path fill-rule="evenodd" clip-rule="evenodd" d="M1397.57 232.762L1386.05 242.671L1380.73 236.506L1397.6 222L1414.34 236.517L1408.99 242.66L1397.57 232.762Z" fill="url(#paint2_linear_171_24765)"/>
<rect x="1354" y="199.5" width="87" height="87" rx="43.5" stroke="#DAE0E6" shape-rendering="crispEdges"/>
</g>
<g filter="url(#filter18_d_171_24765)">
<rect x="1369.5" y="13" width="88" height="88" rx="44" fill="white" shape-rendering="crispEdges"/>
<path fill-rule="evenodd" clip-rule="evenodd" d="M1425.37 58.139C1420.32 58.139 1416.23 62.2214 1416.23 67.2575C1416.23 72.2934 1420.32 76.3758 1425.37 76.3758C1430.41 76.3758 1434.5 72.2934 1434.5 67.2575C1434.5 62.2214 1430.41 58.139 1425.37 58.139ZM1401.63 58.1398C1396.59 58.1398 1392.5 62.2214 1392.5 67.2575C1392.5 72.2934 1396.59 76.3758 1401.63 76.3758C1406.68 76.3758 1410.77 72.2934 1410.77 67.2575C1410.77 62.2214 1406.68 58.1398 1401.63 58.1398ZM1422.63 46.741C1422.63 51.7772 1418.54 55.86 1413.5 55.86C1408.46 55.86 1404.37 51.7772 1404.37 46.741C1404.37 41.7058 1408.46 37.623 1413.5 37.623C1418.54 37.623 1422.63 41.7058 1422.63 46.741Z" fill="#F06A6A"/>
<rect x="1370" y="13.5" width="87" height="87" rx="43.5" stroke="#DAE0E6" shape-rendering="crispEdges"/>
</g>
<g filter="url(#filter19_d_171_24765)">
<rect x="501.5" y="220" width="120" height="120" rx="60" fill="white" shape-rendering="crispEdges"/>
<path fill-rule="evenodd" clip-rule="evenodd" d="M546.281 257.383L561.498 255.789L576.716 257.383L588.498 273.055L561.499 304.21L534.5 273.055L546.281 257.383Z" fill="#FDB300"/>
<path fill-rule="evenodd" clip-rule="evenodd" d="M545.436 273.243L561.499 304.21L534.5 273.243H545.436Z" fill="#EA6C00"/>
<path fill-rule="evenodd" clip-rule="evenodd" d="M577.565 273.243L561.499 304.21L588.5 273.243H577.565Z" fill="#EA6C00"/>
<path fill-rule="evenodd" clip-rule="evenodd" d="M545.191 273.243H577.253L561.222 304.21L545.191 273.243Z" fill="#FDAD00"/>
<path fill-rule="evenodd" clip-rule="evenodd" d="M560.941 255.789L546.02 257.4L545.191 273.243L560.941 255.789Z" fill="#FDD231"/>
<path fill-rule="evenodd" clip-rule="evenodd" d="M561.498 255.789L576.416 257.4L577.253 273.243L561.498 255.789Z" fill="#FDD231"/>
<path fill-rule="evenodd" clip-rule="evenodd" d="M588.5 273.243L576.687 257.475L577.535 273.241L588.5 273.243Z" fill="#FDAD00"/>
<path fill-rule="evenodd" clip-rule="evenodd" d="M534.5 273.243L546.312 257.475L545.464 273.241L534.5 273.243Z" fill="#FDAD00"/>
<path fill-rule="evenodd" clip-rule="evenodd" d="M561.222 255.789L545.191 273.243H577.253L561.222 255.789Z" fill="#FEEEB7"/>
<rect x="502" y="220.5" width="119" height="119" rx="59.5" stroke="#DAE0E6" shape-rendering="crispEdges"/>
</g>
<g filter="url(#filter20_d_171_24765)">
<rect x="740.5" y="13" width="120" height="120" rx="60" fill="white" shape-rendering="crispEdges"/>
<path d="M797.613 50.7767L777.48 59.1854C776.361 59.6531 776.372 61.2585 777.499 61.7093L797.716 69.8015C799.492 70.5126 801.47 70.5126 803.246 69.8015L823.463 61.7089C824.59 61.2585 824.602 59.6534 823.482 59.1857L803.349 50.7764C801.513 50.0092 799.45 50.0095 797.613 50.7767Z" fill="#FCB400"/>
<path d="M802.275 74.2201V94.436C802.275 95.3973 803.235 96.0559 804.121 95.7016L826.648 86.8755C826.9 86.775 827.115 86.6006 827.267 86.3749C827.419 86.1492 827.5 85.8827 827.5 85.6099V65.3943C827.5 64.4327 826.539 63.7743 825.654 64.1286L803.126 72.9548C802.875 73.0554 802.66 73.2298 802.508 73.4555C802.356 73.6811 802.275 73.9473 802.275 74.2201Z" fill="#18BFFF"/>
<path d="M797.014 75.2625L790.328 78.5209L789.65 78.8521L775.536 85.6778C774.642 86.1135 773.5 85.4554 773.5 84.4522V65.4782C773.5 65.1153 773.684 64.802 773.932 64.5663C774.033 64.4644 774.148 64.3772 774.273 64.3075C774.61 64.1032 775.091 64.0487 775.5 64.212L796.902 72.7713C797.99 73.207 798.075 74.7453 797.014 75.2625Z" fill="#F82B60"/>
<path d="M797.014 75.2625L790.328 78.5209L773.932 64.5663C774.033 64.4644 774.148 64.3772 774.273 64.3075C774.61 64.1032 775.091 64.0487 775.5 64.212L796.902 72.7713C797.99 73.207 798.075 74.7453 797.014 75.2625Z" fill="black" fill-opacity="0.25"/>
<rect x="741" y="13.5" width="119" height="119" rx="59.5" stroke="#DAE0E6" shape-rendering="crispEdges"/>
</g>
<g filter="url(#filter21_d_171_24765)">
<rect x="666.5" y="160" width="120" height="120" rx="60" fill="white" shape-rendering="crispEdges"/>
<path fill-rule="evenodd" clip-rule="evenodd" d="M747.089 193.018H705.919C702.377 193.018 699.505 195.886 699.5 199.428V240.538C699.493 242.245 700.166 243.884 701.371 245.094C702.576 246.303 704.212 246.983 705.919 246.983H747.089C748.795 246.98 750.429 246.3 751.632 245.09C752.835 243.881 753.507 242.243 753.5 240.538V199.428C753.495 195.89 750.628 193.022 747.089 193.018ZM722.789 231.887C722.786 232.457 722.557 233.003 722.151 233.404C721.745 233.805 721.196 234.028 720.626 234.024H711.629C710.452 234.019 709.501 233.063 709.501 231.887V205.112C709.501 203.935 710.452 202.98 711.629 202.975H720.626C721.804 202.98 722.758 203.934 722.763 205.112L722.789 231.887ZM743.551 219.594C743.551 220.165 743.323 220.712 742.916 221.114C742.51 221.515 741.96 221.737 741.388 221.731H732.391C731.213 221.726 730.259 220.772 730.255 219.594V205.112C730.259 203.934 731.213 202.98 732.391 202.975H741.388C742.565 202.98 743.517 203.935 743.517 205.112L743.551 219.594Z" fill="url(#paint3_linear_171_24765)"/>
<rect x="667" y="160.5" width="119" height="119" rx="59.5" stroke="#DAE0E6" shape-rendering="crispEdges"/>
</g>
<g filter="url(#filter22_d_171_24765)">
<rect x="1225.5" y="81" width="120" height="120" rx="60" fill="white" shape-rendering="crispEdges"/>
<path d="M1296.32 114L1293.83 137.799L1289.57 117.734L1276.15 120.565L1280.37 140.631L1261.05 144.734L1264.49 160.737L1298.49 168L1306.27 150.561L1309.95 115.436L1296.32 114ZM1285.56 148.55C1284.87 149.207 1283.97 149.125 1282.94 148.796C1281.96 148.468 1281.55 147.319 1281.88 145.842C1282.17 144.775 1283.43 144.611 1284.13 144.611C1284.38 144.611 1284.62 144.652 1284.87 144.775C1285.32 144.98 1286.09 145.432 1286.26 146.088C1286.5 147.073 1286.26 147.894 1285.56 148.55ZM1295.42 149.617C1294.89 150.52 1293.58 150.643 1292.23 149.986C1291.33 149.535 1291.33 148.468 1291.45 147.771C1291.49 147.401 1291.66 147.032 1291.9 146.745C1292.23 146.334 1292.76 145.801 1293.34 145.801C1294.36 145.76 1295.18 146.211 1295.67 147.032C1296.16 147.853 1295.91 148.755 1295.42 149.617Z" fill="#00CCBC"/>
<rect x="1226" y="81.5" width="119" height="119" rx="59.5" stroke="#DAE0E6" shape-rendering="crispEdges"/>
</g>
<g filter="url(#filter23_d_171_24765)">
<rect x="986.5" y="24" width="120" height="120" rx="60" fill="white" shape-rendering="crispEdges"/>
<path d="M1035.34 62.8204H1063.48V104.695H1035.34V62.8204Z" fill="white"/>
<path d="M1042.3 57C1029.69 57 1019.5 67.1856 1019.5 79.7964V111H1050.7C1063.31 111 1073.5 100.814 1073.5 88.2036V57H1042.3ZM1060.73 66.5389C1060.73 70.7425 1057.33 73.976 1053.29 73.976H1045.21V80.4431H1056.04V87.8802H1045.37V103.401H1036.48V64.5988H1045.21V71.5509C1045.53 67.6707 1048.76 64.5988 1052.64 64.5988H1060.73V66.5389Z" fill="#0075DD"/>
<rect x="987" y="24.5" width="119" height="119" rx="59.5" stroke="#DAE0E6" shape-rendering="crispEdges"/>
</g>
<defs>
<filter id="filter0_d_171_24765" x="135.5" y="233" width="124" height="124" filterUnits="userSpaceOnUse" color-interpolation-filters="sRGB">
<feFlood flood-opacity="0" result="BackgroundImageFix"/>
<feColorMatrix in="SourceAlpha" type="matrix" values="0 0 0 0 0 0 0 0 0 0 0 0 0 0 0 0 0 0 127 0" result="hardAlpha"/>
<feOffset dy="1"/>
<feGaussianBlur stdDeviation="1"/>
<feComposite in2="hardAlpha" operator="out"/>
<feColorMatrix type="matrix" values="0 0 0 0 0.0627451 0 0 0 0 0.0941176 0 0 0 0 0.156863 0 0 0 0.04 0"/>
<feBlend mode="normal" in2="BackgroundImageFix" result="effect1_dropShadow_171_24765"/>
<feBlend mode="normal" in="SourceGraphic" in2="effect1_dropShadow_171_24765" result="shape"/>
</filter>
<filter id="filter1_d_171_24765" x="387.5" y="72" width="124" height="124" filterUnits="userSpaceOnUse" color-interpolation-filters="sRGB">
<feFlood flood-opacity="0" result="BackgroundImageFix"/>
<feColorMatrix in="SourceAlpha" type="matrix" values="0 0 0 0 0 0 0 0 0 0 0 0 0 0 0 0 0 0 127 0" result="hardAlpha"/>
<feOffset dy="1"/>
<feGaussianBlur stdDeviation="1"/>
<feComposite in2="hardAlpha" operator="out"/>
<feColorMatrix type="matrix" values="0 0 0 0 0.0627451 0 0 0 0 0.0941176 0 0 0 0 0.156863 0 0 0 0.04 0"/>
<feBlend mode="normal" in2="BackgroundImageFix" result="effect1_dropShadow_171_24765"/>
<feBlend mode="normal" in="SourceGraphic" in2="effect1_dropShadow_171_24765" result="shape"/>
</filter>
<filter id="filter2_d_171_24765" x="83.5" y="2" width="124" height="124" filterUnits="userSpaceOnUse" color-interpolation-filters="sRGB">
<feFlood flood-opacity="0" result="BackgroundImageFix"/>
<feColorMatrix in="SourceAlpha" type="matrix" values="0 0 0 0 0 0 0 0 0 0 0 0 0 0 0 0 0 0 127 0" result="hardAlpha"/>
<feOffset dy="1"/>
<feGaussianBlur stdDeviation="1"/>
<feComposite in2="hardAlpha" operator="out"/>
<feColorMatrix type="matrix" values="0 0 0 0 0.0627451 0 0 0 0 0.0941176 0 0 0 0 0.156863 0 0 0 0.04 0"/>
<feBlend mode="normal" in2="BackgroundImageFix" result="effect1_dropShadow_171_24765"/>
<feBlend mode="normal" in="SourceGraphic" in2="effect1_dropShadow_171_24765" result="shape"/>
</filter>
<filter id="filter3_d_171_24765" x="212.5" y="108" width="92" height="92" filterUnits="userSpaceOnUse" color-interpolation-filters="sRGB">
<feFlood flood-opacity="0" result="BackgroundImageFix"/>
<feColorMatrix in="SourceAlpha" type="matrix" values="0 0 0 0 0 0 0 0 0 0 0 0 0 0 0 0 0 0 127 0" result="hardAlpha"/>
<feOffset dy="1"/>
<feGaussianBlur stdDeviation="1"/>
<feComposite in2="hardAlpha" operator="out"/>
<feColorMatrix type="matrix" values="0 0 0 0 0.0627451 0 0 0 0 0.0941176 0 0 0 0 0.156863 0 0 0 0.04 0"/>
<feBlend mode="normal" in2="BackgroundImageFix" result="effect1_dropShadow_171_24765"/>
<feBlend mode="normal" in="SourceGraphic" in2="effect1_dropShadow_171_24765" result="shape"/>
</filter>
<filter id="filter4_d_171_24765" x="18.5" y="145" width="92" height="92" filterUnits="userSpaceOnUse" color-interpolation-filters="sRGB">
<feFlood flood-opacity="0" result="BackgroundImageFix"/>
<feColorMatrix in="SourceAlpha" type="matrix" values="0 0 0 0 0 0 0 0 0 0 0 0 0 0 0 0 0 0 127 0" result="hardAlpha"/>
<feOffset dy="1"/>
<feGaussianBlur stdDeviation="1"/>
<feComposite in2="hardAlpha" operator="out"/>
<feColorMatrix type="matrix" values="0 0 0 0 0.0627451 0 0 0 0 0.0941176 0 0 0 0 0.156863 0 0 0 0.04 0"/>
<feBlend mode="normal" in2="BackgroundImageFix" result="effect1_dropShadow_171_24765"/>
<feBlend mode="normal" in="SourceGraphic" in2="effect1_dropShadow_171_24765" result="shape"/>
</filter>
<filter id="filter5_d_171_24765" x="311.5" y="206" width="92" height="92" filterUnits="userSpaceOnUse" color-interpolation-filters="sRGB">
<feFlood flood-opacity="0" result="BackgroundImageFix"/>
<feColorMatrix in="SourceAlpha" type="matrix" values="0 0 0 0 0 0 0 0 0 0 0 0 0 0 0 0 0 0 127 0" result="hardAlpha"/>
<feOffset dy="1"/>
<feGaussianBlur stdDeviation="1"/>
<feComposite in2="hardAlpha" operator="out"/>
<feColorMatrix type="matrix" values="0 0 0 0 0.0627451 0 0 0 0 0.0941176 0 0 0 0 0.156863 0 0 0 0.04 0"/>
<feBlend mode="normal" in2="BackgroundImageFix" result="effect1_dropShadow_171_24765"/>
<feBlend mode="normal" in="SourceGraphic" in2="effect1_dropShadow_171_24765" result="shape"/>
</filter>
<filter id="filter6_d_171_24765" x="531.5" y="0" width="92" height="92" filterUnits="userSpaceOnUse" color-interpolation-filters="sRGB">
<feFlood flood-opacity="0" result="BackgroundImageFix"/>
<feColorMatrix in="SourceAlpha" type="matrix" values="0 0 0 0 0 0 0 0 0 0 0 0 0 0 0 0 0 0 127 0" result="hardAlpha"/>
<feOffset dy="1"/>
<feGaussianBlur stdDeviation="1"/>
<feComposite in2="hardAlpha" operator="out"/>
<feColorMatrix type="matrix" values="0 0 0 0 0.0627451 0 0 0 0 0.0941176 0 0 0 0 0.156863 0 0 0 0.04 0"/>
<feBlend mode="normal" in2="BackgroundImageFix" result="effect1_dropShadow_171_24765"/>
<feBlend mode="normal" in="SourceGraphic" in2="effect1_dropShadow_171_24765" result="shape"/>
</filter>
<filter id="filter7_d_171_24765" x="825.5" y="234" width="92" height="92" filterUnits="userSpaceOnUse" color-interpolation-filters="sRGB">
<feFlood flood-opacity="0" result="BackgroundImageFix"/>
<feColorMatrix in="SourceAlpha" type="matrix" values="0 0 0 0 0 0 0 0 0 0 0 0 0 0 0 0 0 0 127 0" result="hardAlpha"/>
<feOffset dy="1"/>
<feGaussianBlur stdDeviation="1"/>
<feComposite in2="hardAlpha" operator="out"/>
<feColorMatrix type="matrix" values="0 0 0 0 0.0627451 0 0 0 0 0.0941176 0 0 0 0 0.156863 0 0 0 0.04 0"/>
<feBlend mode="normal" in2="BackgroundImageFix" result="effect1_dropShadow_171_24765"/>
<feBlend mode="normal" in="SourceGraphic" in2="effect1_dropShadow_171_24765" result="shape"/>
</filter>
<filter id="filter8_d_171_24765" x="887.5" y="120" width="92" height="92" filterUnits="userSpaceOnUse" color-interpolation-filters="sRGB">
<feFlood flood-opacity="0" result="BackgroundImageFix"/>
<feColorMatrix in="SourceAlpha" type="matrix" values="0 0 0 0 0 0 0 0 0 0 0 0 0 0 0 0 0 0 127 0" result="hardAlpha"/>
<feOffset dy="1"/>
<feGaussianBlur stdDeviation="1"/>
<feComposite in2="hardAlpha" operator="out"/>
<feColorMatrix type="matrix" values="0 0 0 0 0.0627451 0 0 0 0 0.0941176 0 0 0 0 0.156863 0 0 0 0.04 0"/>
<feBlend mode="normal" in2="BackgroundImageFix" result="effect1_dropShadow_171_24765"/>
<feBlend mode="normal" in="SourceGraphic" in2="effect1_dropShadow_171_24765" result="shape"/>
</filter>
<filter id="filter9_d_171_24765" x="583.5" y="122" width="68" height="68" filterUnits="userSpaceOnUse" color-interpolation-filters="sRGB">
<feFlood flood-opacity="0" result="BackgroundImageFix"/>
<feColorMatrix in="SourceAlpha" type="matrix" values="0 0 0 0 0 0 0 0 0 0 0 0 0 0 0 0 0 0 127 0" result="hardAlpha"/>
<feOffset dy="1"/>
<feGaussianBlur stdDeviation="1"/>
<feComposite in2="hardAlpha" operator="out"/>
<feColorMatrix type="matrix" values="0 0 0 0 0.0627451 0 0 0 0 0.0941176 0 0 0 0 0.156863 0 0 0 0.04 0"/>
<feBlend mode="normal" in2="BackgroundImageFix" result="effect1_dropShadow_171_24765"/>
<feBlend mode="normal" in="SourceGraphic" in2="effect1_dropShadow_171_24765" result="shape"/>
</filter>
<filter id="filter10_d_171_24765" x="999.5" y="203" width="68" height="68" filterUnits="userSpaceOnUse" color-interpolation-filters="sRGB">
<feFlood flood-opacity="0" result="BackgroundImageFix"/>
<feColorMatrix in="SourceAlpha" type="matrix" values="0 0 0 0 0 0 0 0 0 0 0 0 0 0 0 0 0 0 127 0" result="hardAlpha"/>
<feOffset dy="1"/>
<feGaussianBlur stdDeviation="1"/>
<feComposite in2="hardAlpha" operator="out"/>
<feColorMatrix type="matrix" values="0 0 0 0 0.0627451 0 0 0 0 0.0941176 0 0 0 0 0.156863 0 0 0 0.04 0"/>
<feBlend mode="normal" in2="BackgroundImageFix" result="effect1_dropShadow_171_24765"/>
<feBlend mode="normal" in="SourceGraphic" in2="effect1_dropShadow_171_24765" result="shape"/>
</filter>
<filter id="filter11_d_171_24765" x="1139.5" y="23" width="68" height="68" filterUnits="userSpaceOnUse" color-interpolation-filters="sRGB">
<feFlood flood-opacity="0" result="BackgroundImageFix"/>
<feColorMatrix in="SourceAlpha" type="matrix" values="0 0 0 0 0 0 0 0 0 0 0 0 0 0 0 0 0 0 127 0" result="hardAlpha"/>
<feOffset dy="1"/>
<feGaussianBlur stdDeviation="1"/>
<feComposite in2="hardAlpha" operator="out"/>
<feColorMatrix type="matrix" values="0 0 0 0 0.0627451 0 0 0 0 0.0941176 0 0 0 0 0.156863 0 0 0 0.04 0"/>
<feBlend mode="normal" in2="BackgroundImageFix" result="effect1_dropShadow_171_24765"/>
<feBlend mode="normal" in="SourceGraphic" in2="effect1_dropShadow_171_24765" result="shape"/>
</filter>
<filter id="filter12_d_171_24765" x="1251.5" y="245" width="68" height="68" filterUnits="userSpaceOnUse" color-interpolation-filters="sRGB">
<feFlood flood-opacity="0" result="BackgroundImageFix"/>
<feColorMatrix in="SourceAlpha" type="matrix" values="0 0 0 0 0 0 0 0 0 0 0 0 0 0 0 0 0 0 127 0" result="hardAlpha"/>
<feOffset dy="1"/>
<feGaussianBlur stdDeviation="1"/>
<feComposite in2="hardAlpha" operator="out"/>
<feColorMatrix type="matrix" values="0 0 0 0 0.0627451 0 0 0 0 0.0941176 0 0 0 0 0.156863 0 0 0 0.04 0"/>
<feBlend mode="normal" in2="BackgroundImageFix" result="effect1_dropShadow_171_24765"/>
<feBlend mode="normal" in="SourceGraphic" in2="effect1_dropShadow_171_24765" result="shape"/>
</filter>
<filter id="filter13_d_171_24765" x="295.5" y="23" width="68" height="68" filterUnits="userSpaceOnUse" color-interpolation-filters="sRGB">
<feFlood flood-opacity="0" result="BackgroundImageFix"/>
<feColorMatrix in="SourceAlpha" type="matrix" values="0 0 0 0 0 0 0 0 0 0 0 0 0 0 0 0 0 0 127 0" result="hardAlpha"/>
<feOffset dy="1"/>
<feGaussianBlur stdDeviation="1"/>
<feComposite in2="hardAlpha" operator="out"/>
<feColorMatrix type="matrix" values="0 0 0 0 0.0627451 0 0 0 0 0.0941176 0 0 0 0 0.156863 0 0 0 0.04 0"/>
<feBlend mode="normal" in2="BackgroundImageFix" result="effect1_dropShadow_171_24765"/>
<feBlend mode="normal" in="SourceGraphic" in2="effect1_dropShadow_171_24765" result="shape"/>
</filter>
<filter id="filter14_d_171_24765" x="-43.5" y="73" width="68" height="68" filterUnits="userSpaceOnUse" color-interpolation-filters="sRGB">
<feFlood flood-opacity="0" result="BackgroundImageFix"/>
<feColorMatrix in="SourceAlpha" type="matrix" values="0 0 0 0 0 0 0 0 0 0 0 0 0 0 0 0 0 0 127 0" result="hardAlpha"/>
<feOffset dy="1"/>
<feGaussianBlur stdDeviation="1"/>
<feComposite in2="hardAlpha" operator="out"/>
<feColorMatrix type="matrix" values="0 0 0 0 0.0627451 0 0 0 0 0.0941176 0 0 0 0 0.156863 0 0 0 0.04 0"/>
<feBlend mode="normal" in2="BackgroundImageFix" result="effect1_dropShadow_171_24765"/>
<feBlend mode="normal" in="SourceGraphic" in2="effect1_dropShadow_171_24765" result="shape"/>
</filter>
<filter id="filter15_d_171_24765" x="-3.5" y="274" width="68" height="68" filterUnits="userSpaceOnUse" color-interpolation-filters="sRGB">
<feFlood flood-opacity="0" result="BackgroundImageFix"/>
<feColorMatrix in="SourceAlpha" type="matrix" values="0 0 0 0 0 0 0 0 0 0 0 0 0 0 0 0 0 0 127 0" result="hardAlpha"/>
<feOffset dy="1"/>
<feGaussianBlur stdDeviation="1"/>
<feComposite in2="hardAlpha" operator="out"/>
<feColorMatrix type="matrix" values="0 0 0 0 0.0627451 0 0 0 0 0.0941176 0 0 0 0 0.156863 0 0 0 0.04 0"/>
<feBlend mode="normal" in2="BackgroundImageFix" result="effect1_dropShadow_171_24765"/>
<feBlend mode="normal" in="SourceGraphic" in2="effect1_dropShadow_171_24765" result="shape"/>
</filter>
<filter id="filter16_d_171_24765" x="1123.5" y="187" width="92" height="92" filterUnits="userSpaceOnUse" color-interpolation-filters="sRGB">
<feFlood flood-opacity="0" result="BackgroundImageFix"/>
<feColorMatrix in="SourceAlpha" type="matrix" values="0 0 0 0 0 0 0 0 0 0 0 0 0 0 0 0 0 0 127 0" result="hardAlpha"/>
<feOffset dy="1"/>
<feGaussianBlur stdDeviation="1"/>
<feComposite in2="hardAlpha" operator="out"/>
<feColorMatrix type="matrix" values="0 0 0 0 0.0627451 0 0 0 0 0.0941176 0 0 0 0 0.156863 0 0 0 0.04 0"/>
<feBlend mode="normal" in2="BackgroundImageFix" result="effect1_dropShadow_171_24765"/>
<feBlend mode="normal" in="SourceGraphic" in2="effect1_dropShadow_171_24765" result="shape"/>
</filter>
<filter id="filter17_d_171_24765" x="1351.5" y="198" width="92" height="92" filterUnits="userSpaceOnUse" color-interpolation-filters="sRGB">
<feFlood flood-opacity="0" result="BackgroundImageFix"/>
<feColorMatrix in="SourceAlpha" type="matrix" values="0 0 0 0 0 0 0 0 0 0 0 0 0 0 0 0 0 0 127 0" result="hardAlpha"/>
<feOffset dy="1"/>
<feGaussianBlur stdDeviation="1"/>
<feComposite in2="hardAlpha" operator="out"/>
<feColorMatrix type="matrix" values="0 0 0 0 0.0627451 0 0 0 0 0.0941176 0 0 0 0 0.156863 0 0 0 0.04 0"/>
<feBlend mode="normal" in2="BackgroundImageFix" result="effect1_dropShadow_171_24765"/>
<feBlend mode="normal" in="SourceGraphic" in2="effect1_dropShadow_171_24765" result="shape"/>
</filter>
<filter id="filter18_d_171_24765" x="1367.5" y="12" width="92" height="92" filterUnits="userSpaceOnUse" color-interpolation-filters="sRGB">
<feFlood flood-opacity="0" result="BackgroundImageFix"/>
<feColorMatrix in="SourceAlpha" type="matrix" values="0 0 0 0 0 0 0 0 0 0 0 0 0 0 0 0 0 0 127 0" result="hardAlpha"/>
<feOffset dy="1"/>
<feGaussianBlur stdDeviation="1"/>
<feComposite in2="hardAlpha" operator="out"/>
<feColorMatrix type="matrix" values="0 0 0 0 0.0627451 0 0 0 0 0.0941176 0 0 0 0 0.156863 0 0 0 0.04 0"/>
<feBlend mode="normal" in2="BackgroundImageFix" result="effect1_dropShadow_171_24765"/>
<feBlend mode="normal" in="SourceGraphic" in2="effect1_dropShadow_171_24765" result="shape"/>
</filter>
<filter id="filter19_d_171_24765" x="499.5" y="219" width="124" height="124" filterUnits="userSpaceOnUse" color-interpolation-filters="sRGB">
<feFlood flood-opacity="0" result="BackgroundImageFix"/>
<feColorMatrix in="SourceAlpha" type="matrix" values="0 0 0 0 0 0 0 0 0 0 0 0 0 0 0 0 0 0 127 0" result="hardAlpha"/>
<feOffset dy="1"/>
<feGaussianBlur stdDeviation="1"/>
<feComposite in2="hardAlpha" operator="out"/>
<feColorMatrix type="matrix" values="0 0 0 0 0.0627451 0 0 0 0 0.0941176 0 0 0 0 0.156863 0 0 0 0.04 0"/>
<feBlend mode="normal" in2="BackgroundImageFix" result="effect1_dropShadow_171_24765"/>
<feBlend mode="normal" in="SourceGraphic" in2="effect1_dropShadow_171_24765" result="shape"/>
</filter>
<filter id="filter20_d_171_24765" x="738.5" y="12" width="124" height="124" filterUnits="userSpaceOnUse" color-interpolation-filters="sRGB">
<feFlood flood-opacity="0" result="BackgroundImageFix"/>
<feColorMatrix in="SourceAlpha" type="matrix" values="0 0 0 0 0 0 0 0 0 0 0 0 0 0 0 0 0 0 127 0" result="hardAlpha"/>
<feOffset dy="1"/>
<feGaussianBlur stdDeviation="1"/>
<feComposite in2="hardAlpha" operator="out"/>
<feColorMatrix type="matrix" values="0 0 0 0 0.0627451 0 0 0 0 0.0941176 0 0 0 0 0.156863 0 0 0 0.04 0"/>
<feBlend mode="normal" in2="BackgroundImageFix" result="effect1_dropShadow_171_24765"/>
<feBlend mode="normal" in="SourceGraphic" in2="effect1_dropShadow_171_24765" result="shape"/>
</filter>
<filter id="filter21_d_171_24765" x="664.5" y="159" width="124" height="124" filterUnits="userSpaceOnUse" color-interpolation-filters="sRGB">
<feFlood flood-opacity="0" result="BackgroundImageFix"/>
<feColorMatrix in="SourceAlpha" type="matrix" values="0 0 0 0 0 0 0 0 0 0 0 0 0 0 0 0 0 0 127 0" result="hardAlpha"/>
<feOffset dy="1"/>
<feGaussianBlur stdDeviation="1"/>
<feComposite in2="hardAlpha" operator="out"/>
<feColorMatrix type="matrix" values="0 0 0 0 0.0627451 0 0 0 0 0.0941176 0 0 0 0 0.156863 0 0 0 0.04 0"/>
<feBlend mode="normal" in2="BackgroundImageFix" result="effect1_dropShadow_171_24765"/>
<feBlend mode="normal" in="SourceGraphic" in2="effect1_dropShadow_171_24765" result="shape"/>
</filter>
<filter id="filter22_d_171_24765" x="1223.5" y="80" width="124" height="124" filterUnits="userSpaceOnUse" color-interpolation-filters="sRGB">
<feFlood flood-opacity="0" result="BackgroundImageFix"/>
<feColorMatrix in="SourceAlpha" type="matrix" values="0 0 0 0 0 0 0 0 0 0 0 0 0 0 0 0 0 0 127 0" result="hardAlpha"/>
<feOffset dy="1"/>
<feGaussianBlur stdDeviation="1"/>
<feComposite in2="hardAlpha" operator="out"/>
<feColorMatrix type="matrix" values="0 0 0 0 0.0627451 0 0 0 0 0.0941176 0 0 0 0 0.156863 0 0 0 0.04 0"/>
<feBlend mode="normal" in2="BackgroundImageFix" result="effect1_dropShadow_171_24765"/>
<feBlend mode="normal" in="SourceGraphic" in2="effect1_dropShadow_171_24765" result="shape"/>
</filter>
<filter id="filter23_d_171_24765" x="984.5" y="23" width="124" height="124" filterUnits="userSpaceOnUse" color-interpolation-filters="sRGB">
<feFlood flood-opacity="0" result="BackgroundImageFix"/>
<feColorMatrix in="SourceAlpha" type="matrix" values="0 0 0 0 0 0 0 0 0 0 0 0 0 0 0 0 0 0 127 0" result="hardAlpha"/>
<feOffset dy="1"/>
<feGaussianBlur stdDeviation="1"/>
<feComposite in2="hardAlpha" operator="out"/>
<feColorMatrix type="matrix" values="0 0 0 0 0.0627451 0 0 0 0 0.0941176 0 0 0 0 0.156863 0 0 0 0.04 0"/>
<feBlend mode="normal" in2="BackgroundImageFix" result="effect1_dropShadow_171_24765"/>
<feBlend mode="normal" in="SourceGraphic" in2="effect1_dropShadow_171_24765" result="shape"/>
</filter>
<linearGradient id="paint0_linear_171_24765" x1="344.41" y1="45.7479" x2="332.122" y2="72.8021" gradientUnits="userSpaceOnUse">
<stop stop-color="#0052CC"/>
<stop offset="0.92" stop-color="#2684FF"/>
</linearGradient>
<linearGradient id="paint1_linear_171_24765" x1="1379.96" y1="271.562" x2="1415.04" y2="271.562" gradientUnits="userSpaceOnUse">
<stop stop-color="#8930FD"/>
<stop offset="1" stop-color="#49CCF9"/>
</linearGradient>
<linearGradient id="paint2_linear_171_24765" x1="1379.96" y1="271.562" x2="1415.04" y2="271.562" gradientUnits="userSpaceOnUse">
<stop stop-color="#FF02F0"/>
<stop offset="1" stop-color="#FFC800"/>
</linearGradient>
<linearGradient id="paint3_linear_171_24765" x1="726.526" y1="246.983" x2="726.526" y2="193.018" gradientUnits="userSpaceOnUse">
<stop stop-color="#0052CC"/>
<stop offset="1" stop-color="#2684FF"/>
</linearGradient>
</defs>
</svg>
