<svg width="48" height="48" viewBox="0 0 48 48" fill="none" xmlns="http://www.w3.org/2000/svg">
<rect width="48" height="48" rx="24" fill="#437EF7"/>
<path d="M18.2768 16.3906C18.5267 15.8684 18.6666 15.2835 18.6666 14.666C18.6666 12.4569 16.8758 10.666 14.6666 10.666C12.4575 10.666 10.6666 12.4569 10.6666 14.666C10.6666 16.8752 12.4575 18.666 14.6666 18.666C15.2842 18.666 15.869 18.5261 16.3912 18.2762L18.4378 20.3228C17.7398 21.3767 17.3333 22.6406 17.3333 23.9993C17.3333 25.3581 17.7398 26.622 18.4378 27.6759L16.6907 29.423C16.4704 29.3641 16.2388 29.3327 16 29.3327C14.5272 29.3327 13.3333 30.5266 13.3333 31.9993C13.3333 33.4721 14.5272 34.666 16 34.666C17.4727 34.666 18.6666 33.4721 18.6666 31.9993C18.6666 31.7605 18.6352 31.5289 18.5763 31.3086L20.3234 29.5615C21.3773 30.2595 22.6412 30.666 24 30.666C25.3587 30.666 26.6226 30.2595 27.6765 29.5615L29.7231 31.6081C29.4732 32.1303 29.3333 32.7152 29.3333 33.3327C29.3333 35.5418 31.1242 37.3327 33.3333 37.3327C35.5424 37.3327 37.3333 35.5418 37.3333 33.3327C37.3333 31.1235 35.5424 29.3327 33.3333 29.3327C32.7158 29.3327 32.1309 29.4726 31.6087 29.7225L29.5621 27.6759C30.2601 26.622 30.6666 25.3581 30.6666 23.9993C30.6666 22.6406 30.2601 21.3767 29.5621 20.3228L31.3092 18.5757C31.5295 18.6346 31.7611 18.666 32 18.666C33.4727 18.666 34.6666 17.4721 34.6666 15.9993C34.6666 14.5266 33.4727 13.3327 32 13.3327C30.5272 13.3327 29.3333 14.5266 29.3333 15.9993C29.3333 16.2382 29.3647 16.4698 29.4236 16.6901L27.6765 18.4372C26.6226 17.7392 25.3587 17.3327 24 17.3327C22.6412 17.3327 21.3773 17.7392 20.3234 18.4372L18.2768 16.3906Z" fill="white"/>
</svg>
