<svg width="25" height="24" viewBox="0 0 25 24" fill="none" xmlns="http://www.w3.org/2000/svg">
<path d="M22.1845 18.7033C21.8216 19.5418 21.392 20.3136 20.8942 21.0232C20.2157 21.9906 19.6602 22.6602 19.232 23.032C18.5684 23.6424 17.8573 23.955 17.0958 23.9728C16.5492 23.9728 15.8899 23.8172 15.1225 23.5017C14.3526 23.1876 13.6451 23.032 12.9982 23.032C12.3197 23.032 11.592 23.1876 10.8136 23.5017C10.0341 23.8172 9.40613 23.9816 8.926 23.9979C8.1958 24.0291 7.46797 23.7076 6.74147 23.032C6.27779 22.6276 5.69781 21.9343 5.00301 20.9521C4.25756 19.9033 3.64469 18.687 3.16455 17.3004C2.65035 15.8026 2.39258 14.3523 2.39258 12.9482C2.39258 11.3398 2.74012 9.95259 3.43625 8.79011C3.98334 7.85636 4.71117 7.11979 5.6221 6.57906C6.53304 6.03834 7.5173 5.76279 8.57727 5.74516C9.15725 5.74516 9.91782 5.92456 10.863 6.27715C11.8055 6.63091 12.4106 6.81032 12.676 6.81032C12.8743 6.81032 13.5466 6.60054 14.6863 6.18233C15.764 5.79449 16.6736 5.63391 17.4188 5.69716C19.438 5.86012 20.9549 6.6561 21.9638 8.09013C20.1579 9.18432 19.2646 10.7169 19.2824 12.6829C19.2987 14.2142 19.8542 15.4886 20.9461 16.5004C21.4409 16.97 21.9934 17.333 22.6082 17.5907C22.4749 17.9774 22.3342 18.3477 22.1845 18.7033ZM17.5536 0.480137C17.5536 1.68041 17.1151 2.8011 16.241 3.8384C15.1862 5.07155 13.9104 5.78412 12.5269 5.67168C12.5093 5.52769 12.4991 5.37614 12.4991 5.21688C12.4991 4.06462 13.0007 2.83147 13.8915 1.82321C14.3362 1.3127 14.9018 0.888228 15.5877 0.549615C16.2721 0.216055 16.9195 0.031589 17.5284 0C17.5462 0.160458 17.5536 0.320926 17.5536 0.480121V0.480137Z" fill="white"/>
</svg>
