<svg width="25" height="24" viewBox="0 0 25 24" fill="none" xmlns="http://www.w3.org/2000/svg">
<g clip-path="url(#clip0_171_13202)">
<path d="M24.2633 12.2763C24.2633 11.4605 24.1972 10.6404 24.0561 9.83789H12.7373V14.4589H19.219C18.9501 15.9492 18.0858 17.2676 16.8204 18.1054V21.1037H20.6873C22.9582 19.0137 24.2633 15.9272 24.2633 12.2763Z" fill="white"/>
<path d="M12.7372 23.9994C15.9736 23.9994 18.703 22.9367 20.6916 21.1024L16.8246 18.1041C15.7487 18.836 14.3598 19.2505 12.7416 19.2505C9.61096 19.2505 6.95653 17.1384 6.00412 14.2988H2.01367V17.3898C4.05078 21.4419 8.19997 23.9994 12.7372 23.9994Z" fill="white"/>
<path d="M5.99984 14.3007C5.49718 12.8103 5.49718 11.1965 5.99984 9.70618V6.61523H2.01381C0.311804 10.006 0.311804 14.0009 2.01381 17.3916L5.99984 14.3007Z" fill="white"/>
<path d="M12.7372 4.74966C14.448 4.7232 16.1015 5.36697 17.3405 6.54867L20.7666 3.12262C18.5972 1.0855 15.7179 -0.034466 12.7372 0.000808666C8.19997 0.000808666 4.05078 2.55822 2.01367 6.61481L5.99971 9.70575C6.94772 6.86173 9.60654 4.74966 12.7372 4.74966Z" fill="white"/>
</g>
<defs>
<clipPath id="clip0_171_13202">
<rect width="24" height="24" fill="white" transform="translate(0.5)"/>
</clipPath>
</defs>
</svg>
